<svg height="512pt" viewBox="0 0 512 512" width="512pt" xmlns="http://www.w3.org/2000/svg"><path d="m512 256v.179688c0 5.339843-.171875 10.628906-.5 15.890624-.058594 1.089844-.140625 2.179688-.21875 3.269532-.550781 7.359375-1.410156 14.628906-2.582031 21.808594-.160157.992187-.320313 1.992187-.5 2.972656-1.039063 6.019531-2.289063 11.957031-3.757813 17.828125-2.28125 9.230469-5.082031 18.25-8.351562 27.050781-2.851563 7.710938-6.058594 15.238281-9.628906 22.570312-33.3125 68.71875-96.472657 120.289063-172.632813 137.859376-5.949219 1.390624-11.988281 2.558593-18.097656 3.511718-.320313.046875-.652344.097656-.96875.148438-1.710938.261718-3.421875.5-5.140625.71875-4.691406.613281-9.429688 1.101562-14.199219 1.453125-6.410156.488281-12.882813.738281-19.421875.738281-5.710938 0-11.378906-.191406-17-.558594-133.460938-8.75-239-119.769531-239-255.441406 0-141.378906 114.621094-256 256-256 139.171875 0 252.421875 111.070312 255.921875 249.398438.046875 2.203124.078125 4.390624.078125 6.601562zm0 0" fill="#5c6b99"/><path d="m512 256.179688c0 5.339843-.171875 10.628906-.5 15.890624-.058594 1.089844-.140625 2.179688-.21875 3.269532-.550781 7.359375-1.410156 14.628906-2.582031 21.808594-.160157.992187-.320313 1.992187-.5 2.972656-1.039063 6.019531-2.289063 11.957031-3.757813 17.828125-2.28125 9.230469-5.082031 18.25-8.351562 27.050781-2.851563 7.710938-6.058594 15.238281-9.628906 22.570312-33.3125 68.71875-96.472657 120.289063-172.632813 137.859376-5.949219 1.390624-11.988281 2.558593-18.097656 3.511718-.320313.046875-.652344.097656-.96875.148438-1.710938.261718-3.421875.5-5.140625.71875-4.691406.613281-9.429688 1.101562-14.199219 1.453125l-111.792969-111.230469-31.75-118.472656c-.109375-.117188-7.847656-7.847656-7.847656-7.847656l244.597656-161.742188zm0 0" fill="#455373"/><path d="m129.789062 273.773438 59.46875-15.933594 33.824219 126.25-59.46875 15.933594zm0 0" fill="#ff6680"/><path d="m159.324219 265.859375 29.933593-8.019531 33.824219 126.25-29.929687 8.019531zm0 0" fill="#d14960"/><path d="m365.054688 189.230469v81.894531c22.613281 0 40.945312-18.332031 40.945312-40.945312 0-22.613282-18.332031-40.949219-40.945312-40.949219zm0 0" fill="#fff"/><path d="m365.054688 230.179688v40.949218c22.613281 0 40.945312-18.335937 40.945312-40.949218zm0 0" fill="#ebebeb"/><path d="m196.238281 291.746094v-123.132813h2.113281l170.273438-56.640625v233.953125l-170.273438-54.179687zm0 0" fill="#ffdf4c"/><path d="m368.625 230.179688h-172.386719v61.566406h2.113281l170.273438 54.179687zm0 0" fill="#d4b93f"/><path d="m106 230.179688c0-34.003907 27.5625-61.566407 61.566406-61.566407h30.785156v123.132813h-30.785156c-34.003906 0-61.566406-27.5625-61.566406-61.566406zm0 0" fill="#fff"/><path d="m106 230.179688c0 34 27.5625 61.566406 61.566406 61.566406h30.785156v-61.566406zm0 0" fill="#ebebeb"/></svg>