<svg height="512pt" viewBox="0 0 512 512" width="512pt" xmlns="http://www.w3.org/2000/svg"><path d="m512 256c0 7.128906-.289062 14.191406-.871094 21.171875-.128906 1.726563-.289062 3.457031-.46875 5.1875-.78125 7.679687-1.910156 15.25-3.371094 22.710937-.550781 2.878907-1.160156 5.730469-1.808593 8.570313-.179688.808594-.378907 1.621094-.570313 2.417969-.109375.472656-.230468.929687-.339844 1.402344-22.75 92.320312-95.589843 164.929687-188.039062 187.328124-1.472656.359376-2.941406.699219-4.421875 1.03125-5.230469 1.179688-10.519531 2.191407-15.859375 3.03125-9.46875 1.5-19.121094 2.46875-28.910156 2.898438-3.761719.171875-7.539063.25-11.339844.25-141.378906 0-256-114.621094-256-256s114.621094-256 256-256 256 114.621094 256 256zm0 0" fill="#808aff"/><path d="m511.128906 277.171875c-.128906 1.726563-.289062 3.457031-.46875 5.1875-.78125 7.679687-1.910156 15.25-3.371094 22.710937-.550781 2.878907-1.160156 5.730469-1.808593 8.570313-.179688.808594-.378907 1.621094-.570313 2.417969-.109375.472656-.230468.929687-.339844 1.402344-22.75 92.320312-95.589843 164.929687-188.039062 187.328124-1.472656.359376-2.941406.699219-4.421875 1.03125-5.230469 1.179688-10.519531 2.191407-15.859375 3.03125-9.46875 1.5-19.121094 2.46875-28.910156 2.898438-.261719-.25-136.761719-136.769531-136.761719-136.769531l228.441406-250.121094zm0 0" fill="#666ecc"/><path d="m227.507812 380.359375h-83.3125c-11.042968 0-20-8.953125-20-20v-175h103.3125zm0 0" fill="#ebebeb"/><path d="m359.023438 380.359375h-190c-11.046876 0-20-8.953125-20-20v-235.5h210zm0 0" fill="#fff"/><path d="m254.023438 124.859375h105v255.5h-105zm0 0" fill="#ebebeb"/><g fill="#c0dafb"><path d="m179.023438 154.859375h150v60h-150zm0 0"/><path d="m179.023438 235.390625h150v25h-150zm0 0"/><path d="m179.023438 280.390625h65v25h-65zm0 0"/><path d="m179.023438 325.390625h65v25h-65zm0 0"/></g><path d="m264.023438 280.390625h65v70h-65zm0 0" fill="#a0b9d8"/><path d="m254.023438 235.390625h75v25h-75zm0 0" fill="#a0b9d8"/><path d="m254.023438 154.859375h75v60h-75zm0 0" fill="#a0b9d8"/></svg>