<svg height="512pt" viewBox="0 0 512 512" width="512pt" xmlns="http://www.w3.org/2000/svg"><path d="m512 256c0 7.320312-.308594 14.558594-.910156 21.71875-.25 2.929688-.539063 5.851562-.890625 8.761719-1.347657 11.410156-3.449219 22.589843-6.257813 33.488281-24.019531 93.371094-99.402344 166.140625-194.222656 186.382812-7.039062 1.5-14.1875 2.71875-21.429688 3.617188-.320312.042969-.640624.082031-.96875.121094-10.269531 1.261718-20.710937 1.910156-31.320312 1.910156-141.378906 0-256-114.621094-256-256s114.621094-256 256-256 256 114.621094 256 256zm0 0" fill="#ffdf4c"/><path d="m510.199219 286.480469c-1.347657 11.410156-3.449219 22.589843-6.257813 33.488281-24.019531 93.371094-99.402344 166.140625-194.222656 186.382812-7.039062 1.5-14.1875 2.71875-21.429688 3.617188-.320312.042969-143.917968-142.828125-143.917968-142.828125l223.257812-223.25s141.859375 141.859375 142 142c.191406.1875.382813.390625.570313.589844zm0 0" fill="#d4b93f"/><path d="m165.585938 324.710938 21.214843 21.214843-31.820312 31.820313-21.210938-21.214844zm0 0" fill="#5c6b99"/><path d="m144.371094 367.140625 31.816406-31.820313 10.609375 10.605469-31.820313 31.820313zm0 0" fill="#455373"/><path d="m186.542969 367.398438-42.425781-42.425782 134.351562-148.492187 56.566406 56.566406zm0 0" fill="#ff6680"/><path d="m306.75 204.761719-141.421875 141.421875 21.214844 21.214844 148.492187-134.351563zm0 0" fill="#d14960"/><path d="m367.625 143.886719c-25.386719-25.382813-66.539062-25.382813-91.925781 0-25.382813 25.386719-25.382813 66.542969 0 91.925781 25.386719 25.382812 66.539062 25.382812 91.925781 0 25.382812-25.382812 25.382812-66.539062 0-91.925781zm0 0" fill="#5c6b99"/><path d="m367.628906 143.886719-91.925781 91.925781c25.382813 25.382812 66.539063 25.382812 91.925781 0 25.382813-25.386719 25.382813-66.542969 0-91.925781zm0 0" fill="#455373"/><path d="m237.039062 253.261719 21.210938 21.210937-31.820312 31.820313-21.210938-21.214844zm0 0" fill="#fff"/><path d="m251.054688 168.53125 91.921874 91.921875-28.28125 28.285156-91.925781-91.921875zm0 0" fill="#fff"/><g fill="#ebebeb"><path d="m215.820312 295.6875 31.820313-31.816406 10.605469 10.605468-31.820313 31.820313zm0 0"/><path d="m268.730469 242.78125 28.28125-28.285156 45.964843 45.964844-28.285156 28.28125zm0 0"/></g></svg>