<svg height="512pt" viewBox="0 0 512 512" width="512pt" xmlns="http://www.w3.org/2000/svg"><path d="m512 256c0 8.601562-.429688 17.109375-1.261719 25.5-.449219 4.539062-1.007812 9.039062-1.699219 13.5-2.167968 14.261719-5.527343 28.128906-9.960937 41.511719-29.6875 89.6875-107.628906 157.410156-203.078125 172.378906-12.710938 1.988281-25.738281 3.050781-39 3.097656-.328125.011719-.671875.011719-1 .011719-141.378906 0-256-114.621094-256-256s114.621094-256 256-256 256 114.621094 256 256zm0 0" fill="#ff6680"/><path d="m509.039062 295c-2.167968 14.261719-5.527343 28.128906-9.960937 41.511719-29.6875 89.6875-107.628906 157.410156-203.078125 172.378906-12.710938 1.988281-25.738281 3.050781-39 3.097656l-151-150.988281 220.359375-237.878906 67.210937 67.207031.660157.671875h11.769531l103 104zm0 0" fill="#d14960"/><path d="m347.570312 144.335938-21.214843-21.214844-70.355469 70.355468-70.355469-70.355468-21.214843 21.214844 70.355468 70.351562-.355468.359375 21.214843 21.210937.355469-.355468.355469.355468 21.214843-21.210937-.355468-.359375zm0 0" fill="#ffdf4c"/><path d="m347.570312 144.335938-21.214843-21.214844-70.355469 70.355468v42.425782l.355469.355468 21.214843-21.210937-.355468-.359375zm0 0" fill="#d4b93f"/><path d="m381.386719 221.148438h45v55h-45zm0 0" fill="#d14960"/><path d="m106 191h300v170h-300zm0 0" fill="#5c6b99"/><path d="m256 191h150v170h-150zm0 0" fill="#455373"/><path d="m376.5 276c0 28.996094-23.503906 52.5-52.5 52.5s-52.5-23.503906-52.5-52.5 23.503906-52.5 52.5-52.5 52.5 23.503906 52.5 52.5zm0 0" fill="#ebebeb"/><g fill="#fff"><path d="m146 231h80v30h-80zm0 0"/><path d="m146 291h80v30h-80zm0 0"/></g></svg>