<svg height="512pt" viewBox="0 0 512 512" width="512pt" xmlns="http://www.w3.org/2000/svg"><path d="m512 256c0 10.421875-.621094 20.699219-1.839844 30.789062-2.800781 23.371094-8.75 45.769532-17.410156 66.769532-1.980469 4.8125-4.109375 9.542968-6.371094 14.191406-26.609375 54.78125-72.1875 98.640625-128.199218 123.039062-15.738282 6.859376-32.289063 12.179688-49.488282 15.769532-.75.160156-1.492187.3125-2.242187.460937-5.460938 1.101563-10.980469 2.019531-16.570313 2.761719-11.078125 1.457031-22.390625 2.21875-33.878906 2.21875-6.109375 0-12.171875-.210938-18.179688-.648438-.109374 0-.210937-.011718-.320312-.023437-132.738281-9.46875-237.5-120.15625-237.5-255.328125 0-141.378906 114.621094-256 256-256 138.101562 0 250.671875 109.371094 255.808594 246.210938.132812 3.25.191406 6.507812.191406 9.789062zm0 0" fill="#45e595"/><path d="m492.75 353.558594c-1.980469 4.8125-4.109375 9.542968-6.371094 14.191406-26.609375 54.78125-72.1875 98.640625-128.199218 123.039062-15.738282 6.859376-32.289063 12.179688-49.488282 15.769532-.75.160156-1.492187.3125-2.242187.460937-5.460938 1.101563-10.980469 2.019531-16.570313 2.761719-11.078125 1.457031-22.390625 2.21875-33.878906 2.21875-6.109375 0-12.171875-.210938-18.179688-.648438l-131.820312-131.332031 10.328125-30 53.191406-138.960937c-.121093-.117188-33.371093-33.378906-33.371093-33.378906l22.820312-33.898438c-.007812-.011719-11.1875-10.921875-11.1875-10.921875l-4.019531-14.96875s50.386719-22.050781 50.878906-21.582031c.128906.132812 17.019531 17.019531 17.03125 17.042968l25.90625-14.960937c.101563.179687 220.011719 220.03125 255.171875 255.167969zm0 0" fill="#39bf7c"/><path d="m193.457031 180.25h30v40h-30zm0 0" fill="#808aff"/><path d="m208.457031 180.25h15v40h-15zm0 0" fill="#666ecc"/><path d="m375.722656 311.148438v-10h-10v-20h-22.140625v-40h5v-5c0-8.285157-6.714843-15-15-15h-49.128906v144.910156h111.269531v-54.910156zm0 0" fill="#fff"/><path d="m375.722656 311.148438v-10h-10v-20h-17.140625v84.910156h47.140625v-54.910156zm0 0" fill="#ebebeb"/><path d="m116.324219 211.058594h184.265625v155h-184.265625zm0 0" fill="#ff6680"/><path d="m208.457031 211.058594h92.132813v155h-92.132813zm0 0" fill="#d14960"/><path d="m106 350.015625h300v30h-300zm0 0" fill="#ffdf4c"/><path d="m197.390625 365.015625c0 19.332031-15.667969 35-35 35-19.328125 0-35-15.667969-35-35 0-19.328125 15.671875-35 35-35 19.332031 0 35 15.671875 35 35zm0 0" fill="#5c6b99"/><path d="m162.390625 330.015625v70c19.332031 0 35-15.667969 35-35 0-19.328125-15.667969-35-35-35zm0 0" fill="#455373"/><path d="m177.390625 365.015625c0 8.285156-6.714844 15-15 15-8.28125 0-15-6.714844-15-15 0-8.28125 6.71875-15 15-15 8.285156 0 15 6.71875 15 15zm0 0" fill="#fff"/><path d="m162.390625 350.015625v30c8.285156 0 15-6.714844 15-15 0-8.28125-6.714844-15-15-15zm0 0" fill="#ebebeb"/><path d="m383.582031 365.015625c0 19.332031-15.671875 35-35 35-19.332031 0-35-15.667969-35-35 0-19.328125 15.667969-35 35-35 19.328125 0 35 15.671875 35 35zm0 0" fill="#5c6b99"/><path d="m348.582031 330.015625v70c19.328125 0 35-15.667969 35-35 0-19.328125-15.671875-35-35-35zm0 0" fill="#455373"/><path d="m363.582031 365.015625c0 8.285156-6.714843 15-15 15-8.285156 0-15-6.714844-15-15 0-8.28125 6.714844-15 15-15 8.285157 0 15 6.71875 15 15zm0 0" fill="#fff"/><path d="m348.582031 350.015625v30c8.285157 0 15-6.714844 15-15 0-8.28125-6.714843-15-15-15zm0 0" fill="#ebebeb"/><path d="m380.722656 281.148438h-15v30h30v-15c0-8.285157-6.714844-15-15-15zm0 0" fill="#d4b93f"/><path d="m313.582031 241.148438h35v40h-35zm0 0" fill="#c0dafb"/><path d="m213.785156 187.179688c31.089844-17.949219 41.742188-57.703126 23.792969-88.792969l-112.582031 65c17.949218 31.089843 57.699218 41.742187 88.789062 23.792969zm0 0" fill="#fff"/><path d="m181.285156 130.886719 32.5 56.292969c31.089844-17.949219 41.742188-57.703126 23.792969-88.789063zm0 0" fill="#ebebeb"/><path d="m167.945312 121.214844c-1.851562-3.207032-.75-7.324219 2.457032-9.175782 3.207031-1.851562 7.324218-.75 9.175781 2.457032l20.164063-11.640625c-8.285157-14.347657-26.632813-19.265625-40.980469-10.980469-14.351563 8.28125-19.265625 26.632812-10.980469 40.980469zm0 0" fill="#ffdf4c"/><path d="m158.761719 91.875 11.640625 20.164062c3.207031-1.851562 7.324218-.75 9.175781 2.457032l20.164063-11.640625c-8.285157-14.347657-26.632813-19.265625-40.980469-10.980469zm0 0" fill="#d4b93f"/></svg>