<svg height="512pt" viewBox="0 0 512 512.00015" width="512pt" xmlns="http://www.w3.org/2000/svg"><path d="m512 256.269531c0 5.089844-.160156 10.199219-.46875 15.28125-.042969.597657-.070312 1.199219-.109375 1.789063-.070313 1.058594-.152344 2.109375-.242187 3.160156-.140626 1.921875-.320313 3.839844-.507813 5.738281-.203125 1.980469-.433594 3.953125-.671875 5.910157-.078125.621093-.160156 1.242187-.25 1.851562-15.160156 114.210938-105.589844 204.621094-219.75 219.75-5.109375.679688-10.269531 1.210938-15.46875 1.582031-5.140625.367188-10.3125.589844-15.53125.636719-.167969.011719-.328125.011719-.5.011719-.929688.019531-1.851562.019531-2.769531.019531-2.582031 0-5.148438-.039062-7.730469-.121094-2.300781-.070312-4.609375-.167968-6.910156-.308594-8.441406-.480468-16.859375-1.378906-25.210938-2.710937-12.777344-2.019531-25.398437-4.980469-37.730468-8.910156-7.089844-2.269531-14.089844-4.839844-20.957032-7.730469-92.421875-38.6875-157.300781-130.039062-157.191406-236.488281.148438-141.378907 114.890625-255.878907 256.269531-255.730469 126.121094.128906 230.851563 91.449219 251.871094 211.53125 1.140625 7.417969 2.269531 14.839844 2.910156 22.320312.347657 4.089844.609375 8.1875.757813 12.289063.132812 3.378906.191406 6.75.191406 10.128906zm0 0" fill="#808aff"/><path d="m511.179688 276.5c-.140626 1.921875-.320313 3.839844-.507813 5.738281-.203125 1.980469-.433594 3.953125-.671875 5.910157-.078125.621093-.160156 1.242187-.25 1.851562-15.160156 114.210938-105.589844 204.621094-219.75 219.75-5.109375.679688-10.269531 1.210938-15.46875 1.582031-5.140625.367188-10.3125.589844-15.53125.636719l-153-152.578125 66.898438-210.570313 21.230468 21.679688 117.429688-37.890625 37.140625 37.890625h57.300781zm0 0" fill="#666ecc"/><path d="m322.667969 199.273438h-133.335938l11.113281-66.664063h111.109376zm0 0" fill="#ff6680"/><path d="m128.457031 148.820312h44.445313v44.441407h-44.445313zm0 0" fill="#ff6680"/><path d="m256 199.273438h66.667969l-11.113281-66.664063h-55.554688zm0 0" fill="#d14960"/><path d="m106 170.503906h300v188.886719h-300zm0 0" fill="#ffdf4c"/><path d="m256 170.503906h150v188.886719h-150zm0 0" fill="#d4b93f"/><path d="m106 231.613281h300v66.667969h-300zm0 0" fill="#fff"/><path d="m256 231.613281h150v66.667969h-150zm0 0" fill="#ebebeb"/><path d="m311.554688 264.949219c0 30.683593-24.871094 55.554687-55.554688 55.554687s-55.554688-24.871094-55.554688-55.554687c0-30.683594 24.871094-55.558594 55.554688-55.558594s55.554688 24.875 55.554688 55.558594zm0 0" fill="#c0dafb"/><path d="m256 209.390625v111.113281c30.683594 0 55.554688-24.875 55.554688-55.558594 0-30.679687-24.871094-55.554687-55.554688-55.554687zm0 0" fill="#a0b9d8"/><path d="m256 337.171875c-39.824219 0-72.222656-32.402344-72.222656-72.222656 0-39.824219 32.398437-72.222657 72.222656-72.222657s72.222656 32.398438 72.222656 72.222657c0 39.820312-32.398437 72.222656-72.222656 72.222656zm0-111.113281c-21.441406 0-38.890625 17.445312-38.890625 38.890625 0 21.441406 17.449219 38.886719 38.890625 38.886719s38.890625-17.445313 38.890625-38.886719c0-21.445313-17.449219-38.890625-38.890625-38.890625zm0 0" fill="#5c6b99"/><g fill="#455373"><path d="m256 192.726562v33.332032c21.441406 0 38.890625 17.445312 38.890625 38.886718 0 21.445313-17.449219 38.890626-38.890625 38.890626v33.332031c39.824219 0 72.222656-32.398438 72.222656-72.222657 0-39.820312-32.398437-72.21875-72.222656-72.21875zm0 0"/><path d="m395.101562 198.5625c0 9.203125-7.464843 16.667969-16.667968 16.667969-9.207032 0-16.667969-7.464844-16.667969-16.667969 0-9.207031 7.460937-16.667969 16.667969-16.667969 9.203125 0 16.667968 7.460938 16.667968 16.667969zm0 0"/></g></svg>