<svg height="512pt" viewBox="0 0 512 512.00015" width="512pt" xmlns="http://www.w3.org/2000/svg"><path d="m512 256.269531c0 1.628907-.019531 3.261719-.058594 4.878907-.042968 1.851562-.089844 3.691406-.160156 5.53125-.070312 1.628906-.152344 3.25-.25 4.871093-.070312 1.179688-.152344 2.347657-.242188 3.519531 0 .070313-.007812.140626-.019531.199219-.039062.640625-.089843 1.28125-.148437 1.921875 0 .046875-.011719.089844-.011719.140625-.308594 3.878907-.71875 7.726563-1.210937 11.546875-.4375 3.429688-.949219 6.851563-1.527344 10.242188-18.050782 106.460937-101.820313 190.527344-208.082032 209.058594-5.699218.992187-11.457031 1.800781-17.289062 2.402343-4.550781.488281-9.128906.839844-13.75 1.066407-.621094.042968-1.238281.070312-1.859375.101562-.332031.011719-.671875.03125-1 .039062-2.332031.101563-4.671875.160157-7.011719.191407h-.269531c-1.128906.007812-2.25.019531-3.378906.019531-5.699219 0-11.359375-.199219-16.96875-.570312-6.742188-.449219-13.410157-1.160157-19.992188-2.128907-4.308593-.621093-8.578125-1.351562-12.808593-2.191406-.230469-.050781-.472657-.089844-.699219-.140625-12.929688-2.597656-25.492188-6.167969-37.621094-10.628906-3.519531-1.300782-7-2.667969-10.449219-4.121094-39.640625-16.589844-157.332031-99.386719-157.191406-236.488281.148438-141.378907 114.890625-255.878907 256.269531-255.730469 119.0625.128906 219.0625 81.511719 247.5625 191.640625.339844 1.328125.679688 2.660156 1 4 .699219 2.890625 1.347657 5.789063 1.949219 8.71875.390625 1.929687.769531 3.871094 1.109375 5.820313.121094.582031.21875 1.160156.320313 1.742187 1.140624 6.519531 2.019531 13.117187 2.648437 19.796875.269531 2.820312.492187 5.652344.652344 8.492188.109375 1.621093.1875 3.25.257812 4.890624.160157 3.699219.230469 7.429688.230469 11.167969zm0 0" fill="#45e595"/><path d="m508.371094 299.121094c-18.050782 106.460937-101.820313 190.527344-208.082032 209.058594-5.699218.992187-11.457031 1.800781-17.289062 2.402343l-77-76.101562 20.550781-30.160157c-.269531-.269531-65.480469-65.480468-65.820312-65.820312-24.53125-24.320312-39.730469-57.941406-39.730469-95.039062l60-45.722657 128.050781-97.929687s199.21875 199.210937 199.320313 199.3125zm0 0" fill="#39bf7c"/><path d="m121 197.738281v45.726563c0 67.28125 50.011719 123.15625 115 132.796875v28.0625h-30v30.15625h100v-30.15625h-30v-28.0625c64.988281-9.640625 115-65.515625 115-132.796875v-45.726563zm240 45.726563c0 57.585937-47.101562 104.433594-105 104.433594s-105-46.847657-105-104.433594v-15.886719h210zm0 0" fill="#5c6b99"/><path d="m256 197.738281v29.839844h105v15.886719c0 57.585937-47.101562 104.433594-105 104.433594v86.582031h50v-30.15625h-30v-28.0625c64.988281-9.640625 115-65.515625 115-132.796875v-45.726563zm0 0" fill="#455373"/><path d="m256 317.804688c-41.421875 0-75-33.578126-75-75v-90c0-41.417969 33.578125-75 75-75s75 33.582031 75 75v90c0 41.421874-33.578125 75-75 75zm0 0" fill="#ffdf4c"/><path d="m256 77.804688v240c41.421875 0 75-33.578126 75-75v-90c0-41.421876-33.578125-75-75-75zm0 0" fill="#d4b93f"/><path d="m271 182.804688h60v30h-60zm0 0" fill="#bfa63c"/><path d="m271 122.804688v30h60c0-10.667969-2.242188-20.808594-6.257812-30zm0 0" fill="#bfa63c"/><path d="m271 272.804688h53.742188c4.015624-9.1875 6.257812-19.328126 6.257812-30h-60zm0 0" fill="#bfa63c"/><g fill="#d4b93f"><path d="m181 182.804688h60v30h-60zm0 0"/><path d="m241 122.804688h-53.742188c-4.015624 9.191406-6.257812 19.332031-6.257812 30h60zm0 0"/><path d="m241 272.804688v-30h-60c0 10.671874 2.242188 20.8125 6.257812 30zm0 0"/></g></svg>