<svg height="512pt" viewBox="0 0 512 512.00015" width="512pt" xmlns="http://www.w3.org/2000/svg"><path d="m512 256.269531c0 1.628907-.019531 3.261719-.058594 4.878907-.03125 1.410156-.070312 2.8125-.121094 4.210937-.070312 2.070313-.160156 4.128906-.289062 6.191406-.351562 5.828125-.890625 11.609375-1.632812 17.328125-.878907 6.832032-2.019532 13.582032-3.429688 20.230469-21.449219 101.699219-103.269531 181.121094-206.179688 199.070313-7.230468 1.261718-14.558593 2.21875-21.988281 2.851562-2.261719.199219-4.53125.359375-6.8125.488281-.738281.050781-1.488281.089844-2.238281.128907-.621094.042968-1.238281.070312-1.859375.101562-.332031.011719-.671875.03125-1 .039062-2.332031.101563-4.671875.160157-7.011719.191407h-.269531c-1.128906.007812-2.25.019531-3.378906.019531-12.550781-.011719-24.898438-.929688-36.960938-2.699219-4.308593-.621093-8.578125-1.351562-12.808593-2.191406-.230469-.050781-.472657-.089844-.699219-.140625-12.929688-2.597656-25.492188-6.167969-37.621094-10.628906-3.519531-1.300782-7-2.667969-10.449219-4.121094-39.640625-16.589844-157.332031-99.386719-157.191406-236.488281.148438-141.378907 114.890625-255.878907 256.269531-255.730469 119.0625.128906 219.0625 81.511719 247.5625 191.640625.339844 1.328125.679688 2.660156 1 4 .699219 2.890625 1.347657 5.789063 1.949219 8.71875.390625 1.929687.769531 3.871094 1.109375 5.820313.121094.582031.21875 1.160156.320313 1.742187 1.140624 6.519531 2.019531 13.117187 2.648437 19.796875.269531 2.820312.492187 5.652344.652344 8.492188.109375 1.621093.1875 3.25.257812 4.890624.160157 3.699219.230469 7.429688.230469 11.167969zm0 0" fill="#5c6b99"/><path d="m506.46875 309.109375c-21.449219 101.699219-103.269531 181.121094-206.179688 199.070313-7.230468 1.261718-14.558593 2.21875-21.988281 2.851562l-169-168.269531 46.757813-150 93.742187-55.582031s79.789063-5.210938 83.898438-.839844c.339843.320312 172.519531 172.511718 172.769531 172.769531zm0 0" fill="#455373"/><path d="m402.703125 327.84375-116.390625-36v-48.160156l116.390625-36zm0 0" fill="#666ecc"/><path d="m292.300781 137.179688h-80.65625l-85.863281 85.863281 21.214844 21.214843 77.074218-77.078124h68.230469zm0 0" fill="#fff"/><path d="m109.300781 192.761719h230v150h-230zm0 0" fill="#ff6680"/><path d="m289.125 232.921875c0 8.28125-6.714844 15-15 15s-15-6.71875-15-15c0-8.285156 6.714844-15 15-15s15 6.714844 15 15zm0 0" fill="#ff6680"/><path d="m224.300781 192.761719h115v150h-115zm0 0" fill="#d14960"/><path d="m224.300781 137.179688h68v30h-68zm0 0" fill="#ebebeb"/><path d="m317.300781 174.238281h-67.5v-45h67.5c12.425781 0 22.5 10.074219 22.5 22.5s-10.074219 22.5-22.5 22.5zm0 0" fill="#808aff"/></svg>