<svg height="512pt" viewBox="0 0 512 512.00015" width="512pt" xmlns="http://www.w3.org/2000/svg"><path d="m512 256.269531c0 .320313 0 .640625-.011719.960938 0 1.308593-.019531 2.621093-.046875 3.917969-.050781 2.480468-.132812 4.953124-.261718 7.410156-.007813.242187-.019532.480468-.03125.722656-.027344.757812-.066407 1.507812-.117188 2.269531-.011719.179688-.019531.347657-.042969.53125-.257812 4.367188-.636719 8.699219-1.128906 13.007813-.4375 3.890625-.96875 7.761718-1.578125 11.589844-2.222656 13.902343-5.5625 27.421874-9.921875 40.480468-27.839844 83.359375-97.398437 147.621094-183.890625 168.011719-4.609375 1.089844-9.269531 2.046875-13.96875 2.878906-.238281.050781-.46875.089844-.710938.128907-1.199218.210937-2.398437.410156-3.609374.601562-8.257813 1.320312-16.660157 2.25-25.179688 2.738281-.75.050781-1.5.089844-2.25.128907-.621094.042968-1.238281.070312-1.859375.101562-.332031.011719-.671875.03125-1 .039062-3.53125.152344-7.089844.210938-10.660156.210938-7.53125-.011719-14.992188-.339844-22.359375-.988281-4.859375-.421875-9.679688-.992188-14.460938-1.691407-.050781-.011718-.089844-.011718-.140625-.019531-1.539062-.21875-3.078125-.460937-4.609375-.710937-2.75-.449219-5.480468-.941406-8.199218-1.480469-.230469-.050781-.472657-.089844-.699219-.140625-12.929688-2.597656-25.492188-6.167969-37.621094-10.628906-3.519531-1.300782-7-2.667969-10.449219-4.121094-92.421875-38.6875-157.300781-130.039062-157.191406-236.488281.148438-141.378907 114.890625-255.878907 256.269531-255.730469 119.0625.128906 219.0625 81.511719 247.5625 191.640625.339844 1.328125.679688 2.660156 1 4 .699219 2.890625 1.347657 5.789063 1.949219 8.71875.390625 1.929687.769531 3.871094 1.109375 5.820313.121094.582031.21875 1.160156.320313 1.742187 1.140624 6.519531 2.019531 13.117187 2.648437 19.796875.421875 4.429688.722656 8.890625.910156 13.382812.160157 3.699219.230469 7.429688.230469 11.167969zm0 0" fill="#ff6680"/><path d="m498.859375 337.160156c-27.839844 83.359375-97.398437 147.621094-183.890625 168.011719-4.609375 1.089844-9.269531 2.046875-13.96875 2.878906l-90-89.089843v-30s-77.519531-77.769532-77.851562-78.109376l16.183593-16.179687c-.050781-.0625-16.183593-16.140625-16.183593-16.140625v-137.382812s133.832031-3.546876 137.382812 0c0 0 16.089844 16.121093 16.140625 16.183593l16.179687-16.183593c.339844.332031 196.007813 196.011718 196.007813 196.011718zm0 0" fill="#d14960"/><path d="m266 263.996094h40v138.664062h-40zm0 0" fill="#808aff"/><path d="m286 263.996094h20v138.664062h-20zm0 0" fill="#666ecc"/><path d="m211 388.964844h150v30h-150zm0 0" fill="#666ecc"/><path d="m286 388.964844h75v30h-75zm0 0" fill="#48529b"/><path d="m133.148438 310.851562c46.863281 46.863282 122.839843 46.863282 169.703124 0 46.863282-46.863281 46.863282-122.839843 0-169.703124zm0 0" fill="#fff"/><path d="m218 226 84.851562 84.851562c46.863282-46.863281 46.863282-122.839843 0-169.703124zm0 0" fill="#ebebeb"/><path d="m157.390625 165.390625c24.507813-24.507813 64.386719-24.507813 88.894531 0l24.242188-24.242187c-37.875-37.878907-99.503906-37.878907-137.378906 0-37.878907 37.875-37.878907 99.503906 0 137.378906l24.242187-24.242188c-24.507813-24.507812-24.507813-64.386718 0-88.894531zm0 0" fill="#ffdf4c"/><path d="m190.167969 221.507812c-5.914063-6.878906-5.921875-16.976562.222656-23.117187 6.140625-6.144531 16.238281-6.136719 23.117187-.222656l21.574219-21.574219c-19.53125-18.527344-49.5625-19.128906-67.589843-1.101562-18.027344 18.027343-17.425782 48.058593 1.101562 67.589843zm0 0" fill="#ffdf4c"/><g fill="#d4b93f"><path d="m133.148438 141.148438 24.242187 24.242187c24.507813-24.507813 64.386719-24.507813 88.894531 0l24.242188-24.242187c-37.875-37.878907-99.503906-37.878907-137.378906 0zm0 0"/><path d="m167.492188 175.492188 22.898437 22.898437c6.144531-6.144531 16.238281-6.136719 23.117187-.222656l21.574219-21.574219c-19.53125-18.527344-49.5625-19.128906-67.589843-1.101562zm0 0"/></g></svg>