<svg height="511pt" viewBox="1 1 511.99997 511" width="511pt" xmlns="http://www.w3.org/2000/svg"><path d="m512 256.769531c0 1.628907-.019531 3.261719-.0625 4.878907-.007812.28125-.007812.550781-.019531.832031-.070313 3.199219-.199219 6.390625-.390625 9.570312-7.617188 127.046875-107.867188 229.089844-234.058594 239.558594-5.429688.449219-10.898438.738281-16.417969.839844-1.769531.039062-3.542969.050781-5.320312.050781-6.652344-.011719-13.242188-.269531-19.761719-.78125-5.328125-.410156-10.609375-.988281-15.839844-1.730469-.449218-.058593-.910156-.121093-1.359375-.1875-4.308593-.621093-8.578125-1.351562-12.808593-2.191406-.230469-.050781-.472657-.089844-.703126-.140625-2.65625-.539062-5.316406-1.109375-7.949218-1.730469-10.140625-2.378906-20.039063-5.359375-29.667969-8.898437-3.519531-1.300782-7-2.671875-10.449219-4.121094-92.421875-38.691406-157.300781-130.039062-157.191406-236.488281.148438-141.378907 114.890625-255.878907 256.269531-255.730469 116.738281.121094 215.160157 78.378906 245.820313 185.238281 1.800781 6.28125 3.371094 12.660157 4.6875 19.121094.472656 2.320313.921875 4.660156 1.332031 7 .03125.191406.070313.371094.101563.558594 1.136718 6.523437 2.019531 13.121093 2.648437 19.800781.128906 1.421875.25 2.832031.359375 4.261719.242188 3.078125.429688 6.1875.550781 9.300781.160157 3.636719.238281 7.308594.230469 10.988281zm0 0" fill="#ffdf4c"/><path d="m511.917969 262.480469c-.070313 3.199219-.199219 6.390625-.390625 9.570312-7.617188 127.046875-107.867188 229.089844-234.058594 239.558594-5.429688.449219-10.898438.738281-16.417969.839844l-109.480469-109.46875 78.308594-141.332031 151.332032-129.886719zm0 0" fill="#d4b93f"/><path d="m245.617188 245.914062 21.210937 21.214844-66.335937 66.335938-21.210938-21.214844zm0 0" fill="#ff6680"/><path d="m190 322.972656 66.335938-66.332031 10.488281 10.488281-66.332031 66.335938zm0 0" fill="#d14960"/><path d="m370.601562 142.371094c-33.195312-33.195313-87.011718-33.195313-120.207031 0-33.195312 33.195312-33.195312 87.011718 0 120.207031 33.195313 33.195313 87.011719 33.195313 120.207031 0 33.195313-33.195313 33.195313-87.011719 0-120.207031zm0 0" fill="#fff"/><path d="m239.792969 273.183594c-38.992188-38.988282-38.992188-102.429688 0-141.421875 38.988281-38.988281 102.429687-38.988281 141.417969 0 38.992187 38.992187 38.992187 102.433593 0 141.421875-38.988282 38.988281-102.429688 38.992187-141.417969 0zm120.207031-120.207032c-27.292969-27.292968-71.703125-27.292968-98.996094 0-27.292968 27.292969-27.292968 71.699219 0 98.992188 27.292969 27.292969 71.703125 27.292969 98.996094 0s27.292969-71.699219 0-98.992188zm0 0" fill="#5c6b99"/><path d="m381.210938 131.761719-21.210938 21.214843c27.292969 27.292969 27.292969 71.699219 0 98.992188s-71.703125 27.292969-98.996094 0l-21.210937 21.214844c38.988281 38.988281 102.429687 38.988281 141.417969 0 38.992187-38.988282 38.992187-102.429688 0-141.421875zm0 0" fill="#455373"/><path d="m190.890625 279.65625 42.425781 42.425781-81.316406 81.316407-42.425781-42.425782zm0 0" fill="#808aff"/><path d="m130.785156 382.1875 81.316406-81.316406 21.210938 21.210937-81.316406 81.316407zm0 0" fill="#666ecc"/><g fill="#c0dafb"><path d="m269.949219 152.5h80v20h-80zm0 0"/><path d="m269.949219 232.5h80v20h-80zm0 0"/><path d="m254.949219 192.707031h110v20h-110zm0 0"/></g><path d="m309.949219 232.5h40v20h-40zm0 0" fill="#a0b9d8"/><path d="m309.949219 192.707031h55v20h-55zm0 0" fill="#a0b9d8"/><path d="m309.949219 152.5h40v20h-40zm0 0" fill="#a0b9d8"/></svg>