<svg height="512pt" viewBox="0 0 512.00051 512" width="512pt" xmlns="http://www.w3.org/2000/svg"><path d="m512 256.269531c0 5.089844-.160156 10.199219-.46875 15.28125-.171875 2.859375-.390625 5.710938-.660156 8.539063-.53125 5.679687-1.242188 11.300781-2.140625 16.859375-.261719 1.632812-.539063 3.25-.832031 4.871093-18.929688 104.78125-101.617188 187.359376-206.398438 206.148438-2.820312.5-5.648438.960938-8.5 1.371094-1.011719.152344-2.03125.289062-3.050781.421875-4.609375.609375-9.257813 1.097656-13.949219 1.457031-6.691406.53125-13.449219.792969-20.269531.78125-6.421875-.007812-12.839844-.25-19.25-.738281-2.839844-.210938-5.679688-.472657-8.511719-.78125-4.046875-.441407-8.078125-.988281-12.097656-1.621094h-.011719c-12.769531-2.019531-25.378906-4.980469-37.710937-8.910156-7.097657-2.269531-14.097657-4.839844-20.957032-7.730469-92.421875-38.6875-157.300781-130.039062-157.191406-236.488281.148438-141.378907 114.890625-255.878907 256.269531-255.730469 126.121094.128906 230.851563 91.449219 251.871094 211.53125.160156 1.019531.308594 2.050781.46875 3.070312.0625.398438.121094.789063.179687 1.1875.902344 6 1.742188 12.011719 2.261719 18.0625.070313.800782.128907 1.589844.1875 2.390626.082031.988281.152344 1.988281.210938 2.976562.371093 5.671875.5625 11.363281.550781 17.050781zm0 0" fill="#ffdf4c"/><path d="m508.730469 296.949219c-.261719 1.632812-.539063 3.25-.832031 4.871093-18.929688 104.78125-101.617188 187.359376-206.398438 206.148438-2.820312.5-5.648438.960938-8.5 1.371094-1.011719.152344-2.03125.289062-3.050781.421875-4.609375.609375-9.257813 1.097656-13.949219 1.457031l-170-169.488281 10-99.628907s101.398438-140 140-140c38.851562 0 74.050781 15.917969 99.441406 41.558594.339844.332032 153.199219 153.191406 153.289063 153.289063zm0 0" fill="#d4b93f"/><path d="m366 311.917969v50.253906h-88.625v30h118.625v-80.253906zm0 0" fill="#ebebeb"/><path d="m146 312.105469v-70c0-60.65625 49.347656-110 110-110s110 49.34375 110 110v70h30v-70c0-77.195313-62.804688-140-140-140s-140 62.804687-140 140v70zm0 0" fill="#808aff"/><path d="m256 102.105469v30c60.652344 0 110 49.34375 110 110v70h30v-70c0-77.199219-62.804688-140-140-140zm0 0" fill="#666ecc"/><path d="m406 341.734375h-50.457031c-2.507813 0-4.542969-2.035156-4.542969-4.542969v-85.914062c0-2.511719 2.035156-4.542969 4.542969-4.542969h50.457031zm0 0" fill="#666ecc"/><path d="m351.597656 246.734375h4.402344v95h-4.402344c-26.234375 0-47.5-21.265625-47.5-47.5s21.265625-47.5 47.5-47.5zm0 0" fill="#d14960"/><path d="m106 341.734375h50.457031c2.507813 0 4.542969-2.035156 4.542969-4.542969v-85.914062c0-2.511719-2.035156-4.542969-4.542969-4.542969h-50.457031zm0 0" fill="#808aff"/><path d="m160.402344 246.734375h-4.402344v95h4.402344c26.234375 0 47.5-21.265625 47.5-47.5s-21.265625-47.5-47.5-47.5zm0 0" fill="#ff6680"/><path d="m298.5 397.898438h-65c-11.046875 0-20-8.953126-20-20 0-11.046876 8.953125-20 20-20h65zm0 0" fill="#5c6b99"/><path d="m256 357.898438h42.5v40h-42.5zm0 0" fill="#455373"/></svg>