<svg height="511pt" viewBox="1 1 511 511.99956" width="511pt" xmlns="http://www.w3.org/2000/svg"><path d="m512.5 256.269531c0 1.628907-.019531 3.261719-.0625 4.878907-.046875 2.601562-.136719 5.203124-.269531 7.792968-.039063.867188-.089844 1.738282-.140625 2.609375-.007813.128907-.019532.269531-.027344.398438-.222656 3.671875-.519531 7.308593-.902344 10.941406-.109375 1.019531-.21875 2.039063-.347656 3.058594-.511719 4.5-1.152344 8.96875-1.910156 13.398437-18.941406 111.082032-109.441406 197.730469-222.339844 210.910156-4.628906.53125-9.300781.953126-14 1.242188-5.378906.339844-10.800781.507812-16.269531.5-2.03125 0-4.050781-.03125-6.0625-.082031-.117188 0-.238281 0-.359375-.007813h-.140625c-4.457031-.121094-8.886719-.351562-13.289063-.691406-5.769531-.449219-11.46875-1.097656-17.109375-1.917969-1.539062-.222656-3.070312-.460937-4.601562-.710937-2.75-.449219-5.488281-.941406-8.207031-1.480469-.230469-.050781-.472657-.089844-.703126-.140625-2.660156-.539062-5.316406-1.109375-7.949218-1.730469-10.140625-2.378906-20.039063-5.359375-29.667969-8.898437-3.519531-1.300782-7-2.671875-10.449219-4.121094-92.421875-38.691406-157.300781-130.039062-157.191406-236.488281.148438-141.378907 114.890625-255.878907 256.269531-255.730469 116.738281.121094 215.160157 78.378906 245.820313 185.238281 1.800781 6.28125 3.367187 12.660157 4.6875 19.121094.511718 2.511719.992187 5.03125 1.429687 7.558594 1.140625 6.523437 2.023438 13.121093 2.652344 19.800781.757813 8.082031 1.148437 16.269531 1.140625 24.550781zm0 0" fill="#45e595"/><path d="m510.75 285.949219c-.511719 4.5-1.152344 8.96875-1.910156 13.398437-18.941406 111.082032-109.441406 197.730469-222.339844 210.910156l-110-109.707031 160-289.101562zm0 0" fill="#39bf7c"/><path d="m329.808594 141.03125v-13.488281h-147.484375v13.488281h-5.824219v206.964844h8.824219v18.050781h144.484375v-18.050781h6.691406v-206.964844zm0 0" fill="#fff"/><path d="m329.808594 141.03125v-13.488281h-73.308594v238.503906h73.308594v-18.050781h6.691406v-206.964844zm0 0" fill="#ebebeb"/><path d="m176.5 111.453125h160v30h-160zm0 0" fill="#808aff"/><path d="m256.5 111.453125h80v30h-80zm0 0" fill="#666ecc"/><path d="m176.5 345.546875h160v55h-160zm0 0" fill="#808aff"/><path d="m256.5 345.546875h80v55h-80zm0 0" fill="#666ecc"/><path d="m271.5 373.046875c0 8.28125-6.714844 15-15 15s-15-6.71875-15-15c0-8.285156 6.714844-15 15-15s15 6.714844 15 15zm0 0" fill="#ffdf4c"/><path d="m256.5 358.046875v30c8.285156 0 15-6.71875 15-15 0-8.285156-6.714844-15-15-15zm0 0" fill="#d4b93f"/><path d="m196.414062 168.378906h120.085938v60h-120.085938zm0 0" fill="#c0dafb"/><path d="m196.414062 248.621094h120.085938v25h-120.085938zm0 0" fill="#c0dafb"/><path d="m256.5 248.621094h60v25h-60zm0 0" fill="#a0b9d8"/><path d="m196.414062 293.621094h120.085938v25h-120.085938zm0 0" fill="#c0dafb"/><g fill="#a0b9d8"><path d="m256.5 293.621094h60v25h-60zm0 0"/><path d="m256.5 168.378906h60v60h-60zm0 0"/></g></svg>