<svg height="511pt" viewBox="1 1 511.99972 511" width="511pt" xmlns="http://www.w3.org/2000/svg"><path d="m512 256.769531c0 1.628907-.019531 3.261719-.0625 4.878907-.027344 1.671874-.078125 3.332031-.136719 4.992187-.070312 1.808594-.160156 3.609375-.273437 5.410156-.46875 7.917969-1.308594 15.738281-2.488282 23.449219-1.480468 9.660156-3.5 19.128906-6.019531 28.390625-23.742187 87.257813-92.46875 155.957031-179.699219 179.660156-9.242187 2.519531-18.691406 4.527344-28.320312 5.988281-5.050781.769532-10.152344 1.398438-15.300781 1.871094-5.851563.539063-11.75.878906-17.699219 1.019532-2.082031.050781-4.171875.070312-6.269531.070312-10.351563-.011719-20.5625-.632812-30.582031-1.851562-2.128907-.257813-4.257813-.539063-6.378907-.847657-4.308593-.621093-8.578125-1.351562-12.808593-2.191406-.230469-.050781-.472657-.089844-.703126-.140625-.867187-.179688-1.726562-.359375-2.597656-.539062-1.789062-.378907-3.582031-.769532-5.351562-1.191407-10.140625-2.378906-20.039063-5.359375-29.667969-8.898437-3.519531-1.300782-7-2.671875-10.449219-4.121094-92.421875-38.691406-157.300781-130.039062-157.191406-236.488281.148438-141.378907 114.890625-255.878907 256.269531-255.730469 114.410157.121094 211.21875 75.289062 243.898438 178.871094.671875 2.109375 1.3125 4.238281 1.921875 6.367187 1.800781 6.28125 3.371094 12.660157 4.6875 19.121094.511718 2.511719.992187 5.03125 1.433594 7.558594.769531 4.382812 1.410156 8.792969 1.949218 13.242187.257813 2.179688.488282 4.359375.699219 6.558594.351563 3.691406.621094 7.410156.800781 11.152344.230469 4.4375.347656 8.898437.339844 13.398437zm0 0" fill="#808aff"/><path d="m511.800781 266.640625c-.070312 1.808594-.160156 3.609375-.273437 5.410156-.46875 7.917969-1.308594 15.738281-2.488282 23.449219-1.480468 9.660156-3.5 19.128906-6.019531 28.390625-23.742187 87.257813-92.46875 155.957031-179.699219 179.660156-9.242187 2.519531-18.691406 4.527344-28.320312 5.988281-5.050781.769532-10.152344 1.398438-15.300781 1.871094-5.851563.539063-11.75.878906-17.699219 1.019532l-156-155.640626 103.851562-196.148437 28.839844-17.359375 29.546875-18s17.820313 17.820312 18 18h.011719 15.898438l17 17.359375h86.851562zm0 0" fill="#666ecc"/><path d="m106 160.640625h300v196.152344h-300zm0 0" fill="#fff"/><path d="m256 160.640625h150v196.152344h-150zm0 0" fill="#ebebeb"/><g fill="#c0dafb"><path d="m129.4375 194.949219h103.84375v28.847656h-103.84375zm0 0"/><path d="m129.4375 293.636719h103.84375v28.84375h-103.84375zm0 0"/><path d="m129.4375 244.292969h103.84375v28.84375h-103.84375zm0 0"/></g><path d="m388.691406 322.480469h-115.382812v-11.535157c0-31.863281 25.828125-57.695312 57.691406-57.695312s57.691406 25.832031 57.691406 57.695312zm0 0" fill="#39bf7c"/><path d="m365.613281 229.566406c0 19.117188-15.496093 34.613282-34.613281 34.613282s-34.617188-15.496094-34.617188-34.613282c0-19.121094 15.5-34.617187 34.617188-34.617187s34.613281 15.496093 34.613281 34.617187zm0 0" fill="#ffa78f"/><path d="m273.308594 143.285156v-5.769531c0-9.558594-7.75-17.308594-17.308594-17.308594s-17.308594 7.75-17.308594 17.308594v5.769531h-28.84375v34.613282h92.304688v-34.613282zm0 0" fill="#ff6680"/><path d="m273.308594 143.285156v-5.769531c0-9.558594-7.75-17.308594-17.308594-17.308594v57.691407h46.15625v-34.613282zm0 0" fill="#d14960"/></svg>