<svg height="512pt" viewBox="0 0 512 512" width="512pt" xmlns="http://www.w3.org/2000/svg"><path d="m512 256c0 19.699219-2.230469 38.878906-6.441406 57.308594-25.847656 113.011718-126.5 197.542968-247.078125 198.671875-.832031.019531-1.652344.019531-2.480469.019531-2.378906 0-4.738281-.03125-7.101562-.101562-3.160157-.078126-6.296876-.226563-9.429688-.429688-.320312-.019531-.648438-.039062-.96875-.070312-.058594 0-.121094 0-.179688-.007813-.109374 0-.21875-.011719-.320312-.019531-6.421875-.441406-12.78125-1.132813-19.058594-2.042969-1.851562-.269531-3.691406-.558594-5.519531-.867187-1.121094-.191407-2.242187-.382813-3.351563-.589844-1.730468-.3125-3.449218-.640625-5.171874-.992188-116.898438-23.667968-204.898438-127-204.898438-250.878906 0-141.378906 114.621094-256 256-256 116.921875 0 215.53125 78.378906 246.160156 185.46875 2.449219 8.5625 4.460938 17.300781 6.019532 26.210938.019531.101562.03125.199218.050781.300781 1.007812 5.859375 1.828125 11.789062 2.441406 17.78125.027344.339843.066406.667969.097656 1.007812.25 2.53125.460938 5.082031.628907 7.628907.171874 2.523437.3125 5.0625.402343 7.601562.140625 3.320312.199219 6.648438.199219 10zm0 0" fill="#5c6b99"/><path d="m512 256c0 19.699219-2.230469 38.878906-6.441406 57.308594-25.847656 113.011718-126.5 197.542968-247.078125 198.671875-.832031.019531-1.652344.019531-2.480469.019531-2.378906 0-4.738281-.03125-7.101562-.101562-3.160157-.078126-6.296876-.226563-9.429688-.429688-.320312-.019531-108.46875-106.46875-108.46875-106.46875s135.539062-319.671875 135.609375-319.609375c.03125.039063 15.539063 15.597656 15.550781 15.609375h13.839844l13 14h72l130.800781 131c.140625 3.320312.199219 6.648438.199219 10zm0 0" fill="#455373"/><path d="m146 130h220v260h-220zm0 0" fill="#fff"/><path d="m256 130h110v260h-110zm0 0" fill="#ebebeb"/><path d="m381 405h-250v-290h250zm-220-30h190v-230h-190zm0 0" fill="#ffdf4c"/><path d="m256 115v30h95v230h-95v30h125v-290zm0 0" fill="#d4b93f"/><path d="m271 101v-5c0-8.285156-6.714844-15-15-15s-15 6.714844-15 15v5h-25v30h80v-30zm0 0" fill="#ff6680"/><path d="m271 101v-5c0-8.285156-6.714844-15-15-15v50h40v-30zm0 0" fill="#d14960"/><path d="m181 330.007812h150v25h-150zm0 0" fill="#c0dafb"/><path d="m256 330.007812h75v25h-75zm0 0" fill="#a0b9d8"/><path d="m181 240.007812h150v25h-150zm0 0" fill="#c0dafb"/><path d="m256 240.007812h75v25h-75zm0 0" fill="#a0b9d8"/><path d="m181 285.007812h150v25h-150zm0 0" fill="#c0dafb"/><path d="m256 285.007812h75v25h-75zm0 0" fill="#a0b9d8"/><path d="m181 165.007812h150v55h-150zm0 0" fill="#c0dafb"/><path d="m256 165.007812h75v55h-75zm0 0" fill="#a0b9d8"/></svg>