<svg height="512pt" viewBox="0 0 512 512" width="512pt" xmlns="http://www.w3.org/2000/svg"><path d="m512 256c0 8.269531-.390625 16.449219-1.160156 24.511719-10.839844 114.089843-96.558594 206.359375-207.46875 227.109375-13.609375 2.550781-27.589844 4.019531-41.871094 4.320312-1.828125.039063-3.660156.058594-5.5.058594-2.378906 0-4.738281-.03125-7.101562-.101562-3.699219-.097657-7.378907-.277344-11.039063-.539063-.53125-.03125-1.070313-.070313-1.597656-.109375-.089844-.011719-.171875-.019531-.261719-.019531h-.03125c-5.730469-.449219-11.410156-1.082031-17.027344-1.902344-1.851562-.269531-3.691406-.558594-5.519531-.867187-1.121094-.191407-2.242187-.382813-3.351563-.589844-1.730468-.3125-3.449218-.640625-5.171874-.992188-116.898438-23.667968-204.898438-127-204.898438-250.878906 0-141.378906 114.621094-256 256-256 116.921875 0 215.53125 78.378906 246.160156 185.46875 2.480469 8.660156 4.511719 17.5 6.070313 26.511719.289062 1.660156.550781 3.320312.808593 5 0 .019531.011719.050781.011719.070312.640625 4.199219 1.1875 8.4375 1.621094 12.710938.027344.339843.066406.667969.097656 1.007812.230469 2.351563.429688 4.71875.589844 7.089844.21875 3.109375.390625 6.25.492187 9.402344.007813.21875.007813.4375.019532.660156.089844 2.6875.128906 5.378906.128906 8.078125zm0 0" fill="#ff6680"/><path d="m512 256c0 8.269531-.390625 16.449219-1.160156 24.511719-10.839844 114.089843-96.558594 206.359375-207.46875 227.109375-13.609375 2.550781-27.589844 4.019531-41.871094 4.320312l-173-172.542968 315-201.136719 108.351562 109c.007813.21875.007813.4375.019532.660156.089844 2.6875.128906 5.378906.128906 8.078125zm0 0" fill="#d14960"/><path d="m209.652344 138.257812h193.847656v133.269532h-38.996094l-7.601562 13.167968-10.492188 18.171876-10.492187-18.171876-7.601563-13.167968h-118.664062zm0 0" fill="#ebebeb"/><path d="m209.652344 138.257812h96.925781v133.269532h-96.925781zm0 0" fill="#fff"/><path d="m379.269531 195.132812h-145.386719v-25h145.386719zm0 0" fill="#c0dafb"/><path d="m379.269531 239.652344h-145.386719v-25h145.386719zm0 0" fill="#c0dafb"/><path d="m306.578125 214.652344h72.691406v25h-72.691406zm0 0" fill="#a0b9d8"/><path d="m306.578125 170.132812h72.691406v25h-72.691406zm0 0" fill="#a0b9d8"/><path d="m282.347656 206.132812h-193.847656v133.269532h38.996094l7.601562 13.167968 10.492188 18.171876 10.492187-18.171876 7.601563-13.167968h118.664062zm0 0" fill="#ffdf4c"/><path d="m185.421875 206.132812h96.925781v133.269532h-96.925781zm0 0" fill="#d4b93f"/><path d="m112.730469 237.507812h145.382812v25h-145.382812zm0 0" fill="#fff"/><path d="m112.730469 283.027344h145.382812v25h-145.382812zm0 0" fill="#fff"/><g fill="#ebebeb"><path d="m185.421875 283.027344h72.691406v25h-72.691406zm0 0"/><path d="m185.421875 237.507812h72.691406v25h-72.691406zm0 0"/></g></svg>