<svg height="512pt" viewBox="0 0 512 512" width="512pt" xmlns="http://www.w3.org/2000/svg"><path d="m512 256c0 8.429688-.410156 16.769531-1.210938 25-1.058593 10.988281-2.820312 21.769531-5.230468 32.308594-25.597656 111.910156-124.546875 195.890625-243.570313 198.613281-1.167969.027344-2.339843.046875-3.507812.058594-.832031.019531-1.652344.019531-2.480469.019531-2.378906 0-4.738281-.03125-7.101562-.101562-3.160157-.078126-6.296876-.226563-9.429688-.429688-.320312-.019531-.648438-.039062-.96875-.070312-.058594 0-.121094 0-.179688-.007813-.109374 0-.21875-.011719-.320312-.019531-6.421875-.441406-12.78125-1.132813-19.058594-2.042969-1.851562-.269531-3.691406-.558594-5.519531-.867187-1.121094-.191407-2.242187-.382813-3.351563-.589844-1.730468-.3125-3.449218-.640625-5.171874-.992188-116.898438-23.667968-204.898438-127-204.898438-250.878906 0-141.378906 114.621094-256 256-256 116.921875 0 215.53125 78.378906 246.160156 185.46875 2.449219 8.5625 4.460938 17.300781 6.019532 26.210938.019531.101562.03125.199218.050781.300781 1.007812 5.859375 1.828125 11.789062 2.441406 17.78125.027344.339843.066406.667969.097656 1.007812.25 2.53125.460938 5.082031.628907 7.628907.171874 2.523437.3125 5.0625.402343 7.601562.140625 3.320312.199219 6.648438.199219 10zm0 0" fill="#ffdf4c"/><path d="m510.789062 281c-1.058593 10.988281-2.820312 21.769531-5.230468 32.308594-25.597656 111.910156-124.546875 195.890625-243.570313 198.613281l-126-125.921875 220-260zm0 0" fill="#d4b93f"/><path d="m135.984375 126h220v260h-220zm0 0" fill="#fff"/><path d="m245.984375 126h110v260h-110zm0 0" fill="#ebebeb"/><path d="m170.984375 217h150v25h-150zm0 0" fill="#c0dafb"/><path d="m245.984375 217h75v25h-75zm0 0" fill="#a0b9d8"/><path d="m170.984375 172h150v25h-150zm0 0" fill="#c0dafb"/><path d="m245.984375 172h75v25h-75zm0 0" fill="#a0b9d8"/><path d="m170.984375 262h150v25h-150zm0 0" fill="#c0dafb"/><path d="m245.984375 262h75v25h-75zm0 0" fill="#a0b9d8"/><path d="m271.984375 370.617188 10.8125-32.019532.644531-.648437 21.292969 21.136719-.726563.722656zm0 0" fill="#ffdf4c"/><path d="m294.085938 348.515625-22.101563 22.101563 32.023437-10.808594.726563-.722656zm0 0" fill="#d4b93f"/><path d="m277.289062 354.707031-5.304687 15.910157 15.910156-5.300782zm0 0" fill="#5c6b99"/><path d="m401.015625 262.800781-21.214844-21.210937 10.609375-10.609375c5.855469-5.855469 15.355469-5.855469 21.210938 0 5.859375 5.859375 5.859375 15.355469 0 21.214843zm0 0" fill="#808aff"/><path d="m411.621094 230.984375-21.214844 21.210937 10.609375 10.609376 10.605469-10.609376c5.859375-5.855468 5.859375-15.355468 0-21.210937zm0 0" fill="#666ecc"/><path d="m282.59375 360.011719-10.609375 10.605469 15.910156-5.300782zm0 0" fill="#455373"/><path d="m381.789062 239.597656 21.214844 21.210938-98.996094 98.996094-21.210937-21.214844zm0 0" fill="#ff6680"/><path d="m293.398438 349.203125 98.992187-98.996094 10.605469 10.609375-98.992188 98.992188zm0 0" fill="#d14960"/></svg>