<svg height="512pt" viewBox="0 0 512 512" width="512pt" xmlns="http://www.w3.org/2000/svg"><path d="m512 256c0 13.378906-1.03125 26.519531-3.011719 39.339844-1.847656 11.96875-4.519531 23.671875-7.976562 35.039062-1.800781 5.972656-3.820313 11.851563-6.050781 17.632813-31.089844 80.699219-101.890626 141.6875-188.460938 159-12.039062 2.410156-24.398438 3.96875-37 4.628906-3.648438.1875-7.328125.300781-11.019531.339844-.832031.019531-1.652344.019531-2.480469.019531-2.378906 0-4.738281-.03125-7.101562-.101562-1.128907-.027344-2.269532-.070313-3.398438-.109376-2.011719-.078124-4.019531-.1875-6.03125-.320312-6.917969-.4375-13.769531-1.160156-20.527344-2.140625-1.851562-.269531-3.691406-.558594-5.519531-.867187-1.121094-.191407-2.242187-.382813-3.351563-.589844-1.730468-.3125-3.449218-.640625-5.171874-.992188-116.898438-23.667968-204.898438-127-204.898438-250.878906 0-141.378906 114.621094-256 256-256 116.921875 0 215.53125 78.378906 246.160156 185.46875 2.449219 8.5625 4.460938 17.300781 6.019532 26.210938.019531.101562.03125.199218.050781.300781 1.007812 5.859375 1.828125 11.789062 2.441406 17.78125.027344.339843.066406.667969.097656 1.007812.25 2.53125.460938 5.082031.628907 7.628907.402343 5.820312.601562 11.691406.601562 17.601562zm0 0" fill="#5c6b99"/><path d="m501.011719 330.378906c-1.800781 5.972656-3.820313 11.851563-6.050781 17.632813-31.089844 80.699219-101.890626 141.6875-188.460938 159-12.039062 2.410156-24.398438 3.96875-37 4.628906l-99-98.929687 27.191406-95 44.058594-218.421876 28.5 29.722657v-29.722657zm0 0" fill="#455373"/><path d="m270.25 99.292969v114.832031c5.769531 4.332031 9.5 11.230469 9.5 19 0 13.117188-10.632812 23.75-23.75 23.75s-23.75-10.632812-23.75-23.75c0-7.769531 3.730469-14.667969 9.5-19v-114.832031l-80.75 114.9375 45.742188 128.992187h98.519531l45.738281-128.992187zm0 0" fill="#ffdf4c"/><path d="m270.25 99.292969v114.832031c5.769531 4.332031 9.5 11.230469 9.5 19 0 13.117188-10.632812 23.75-23.75 23.75v86.34375h49.257812l45.742188-128.988281zm0 0" fill="#d4b93f"/><path d="m170.5 317.707031h171v95h-171zm0 0" fill="#ff6680"/><path d="m256 317.707031h85.5v95h-85.5zm0 0" fill="#d14960"/></svg>