<svg height="512pt" viewBox="0 0 512 512" width="512pt" xmlns="http://www.w3.org/2000/svg"><path d="m512 256c0 5.109375-.148438 10.160156-.449219 15.199219v.019531c-.378906 6.601562-1.019531 13.132812-1.902343 19.582031-.039063.308594-.089844.628907-.128907.9375-.800781 5.703125-1.78125 11.339844-2.941406 16.910157-.679687 3.222656-1.40625 6.410156-2.207031 9.582031-21.429688 85.847656-86.222656 154.550781-169.761719 181.46875-10.710937 3.449219-21.730469 6.210937-33 8.242187-1.109375.199219-2.230469.386719-3.347656.578125-13.121094 2.179688-26.570313 3.371094-40.273438 3.46875-.660156.011719-1.328125.011719-1.988281.011719-2.378906 0-4.738281-.03125-7.101562-.101562-10.148438-.269532-20.136719-1.136719-29.957032-2.570313-1.851562-.269531-3.691406-.558594-5.519531-.867187-1.121094-.191407-2.242187-.382813-3.351563-.589844-1.730468-.3125-3.449218-.640625-5.171874-.992188-116.898438-23.667968-204.898438-127-204.898438-250.878906 0-141.378906 114.621094-256 256-256 116.921875 0 215.53125 78.378906 246.160156 185.46875 2.480469 8.660156 4.511719 17.5 6.070313 26.511719 1.007812 5.859375 1.828125 11.789062 2.441406 17.78125.027344.339843.066406.667969.097656 1.007812.808594 8.289063 1.230469 16.71875 1.230469 25.230469zm0 0" fill="#ffdf4c"/><path d="m504.371094 318.230469c-21.429688 85.847656-86.222656 154.550781-169.761719 181.46875-.03125-.027344-156-156-156.089844-156.089844-19.679687-19.679687-21.308593-50.550781-4.929687-72.109375l-.089844-.078125-21.5-21.5 14.148438-120.210937 74.25 74.25 40.652343 15.910156 22.570313-22.570313 89.410156 9.585938zm0 0" fill="#d4b93f"/><path d="m259.484375 269.003906 70.710937 70.710938-21.214843 21.210937-70.710938-70.710937zm0 0" fill="#d14960"/><path d="m253.300781 247.617188 66.8125-66.8125 21.210938 21.214843-66.808594 66.808594zm0 0" fill="#ff6680"/><path d="m181.703125 191.222656 70.707031 70.710938-21.210937 21.210937-70.710938-70.710937zm0 0" fill="#ff6680"/><path d="m263.910156 258.222656 66.808594-66.808594 10.605469 10.605469-66.808594 66.808594zm0 0" fill="#d14960"/><path d="m178.523438 343.609375c-21.480469-21.476563-21.480469-56.300781 0-77.78125l74.246093-74.246094 77.78125 77.78125-74.246093 74.246094c-21.480469 21.480469-56.300782 21.480469-77.78125 0zm0 0" fill="#808aff"/><path d="m291.660156 230.472656-113.136718 113.136719c21.480468 21.480469 56.304687 21.480469 77.78125 0l74.246093-74.246094zm0 0" fill="#666ecc"/><path d="m339.125 302.683594 53.035156 53.03125-67.175781 67.175781-53.03125-53.03125zm0 0" fill="#ebebeb"/><path d="m166.144531 129.703125 53.035157 53.035156-67.175782 67.171875-53.03125-53.03125zm0 0" fill="#fff"/><path d="m312.753906 209.378906c-21.476562-21.480468-21.476562-56.304687 0-77.78125l2.492188-2.496094 77.785156 77.785157-2.496094 2.492187c-21.476562 21.480469-56.300781 21.480469-77.78125 0zm0 0" fill="#fff"/><path d="m354.140625 167.996094-41.386719 41.382812c21.480469 21.480469 56.304688 21.480469 77.78125 0l2.492188-2.492187zm0 0" fill="#ebebeb"/></svg>