<svg height="512pt" viewBox="0 0 512 512" width="512pt" xmlns="http://www.w3.org/2000/svg"><path d="m512 256c0 1.640625-.019531 3.28125-.050781 4.921875-.179688 9.617187-.890625 19.117187-2.109375 28.449219-.929688 7.148437-2.160156 14.21875-3.667969 21.167968-24.582031 113.300782-124.183594 198.632813-244.171875 201.390626-1.988281.050781-3.988281.070312-6 .070312-1.839844 0-3.671875-.019531-5.5-.058594-.53125-.011718-1.070312-.019531-1.601562-.042968-2.027344-.046876-4.046876-.128907-6.070313-.238282-8.066406-.398437-16.027344-1.191406-23.886719-2.332031-1.832031-.269531-3.660156-.546875-5.472656-.859375-.019531 0-.027344-.007812-.046875-.007812-1.121094-.191407-2.242187-.382813-3.351563-.589844-1.730468-.3125-3.449218-.640625-5.171874-.992188-116.898438-23.667968-204.898438-127-204.898438-250.878906 0-141.378906 114.621094-256 256-256 116.921875 0 215.53125 78.378906 246.160156 185.46875 2.480469 8.660156 4.511719 17.5 6.070313 26.511719 1.007812 5.859375 1.828125 11.789062 2.441406 17.78125.027344.339843.066406.667969.097656 1.007812.402344 4.058594.699219 8.160157.910157 12.28125.210937 4.289063.320312 8.609375.320312 12.949219zm0 0" fill="#45e595"/><path d="m506.171875 310.539062c-24.582031 113.300782-124.183594 198.632813-244.171875 201.390626 0-.121094-106-105.859376-106-105.859376l60-50v-24.582031c-.050781-.046875-37.148438-37.160156-37.148438-37.160156l-32.851562-78.398437 188.210938-77.351563s171.800781 171.8125 171.960937 171.960937zm0 0" fill="#39bf7c"/><path d="m216 295.164062h80v80h-80zm0 0" fill="#5c6b99"/><path d="m256 295.164062h40v80h-40zm0 0" fill="#455373"/><path d="m356 406.066406h-200c0-27.613281 22.386719-50 50-50h100c27.613281 0 50 22.386719 50 50zm0 0" fill="#fff"/><path d="m306 356.066406h-50v50h100c0-27.613281-22.386719-50-50-50zm0 0" fill="#ebebeb"/><path d="m366 215.933594c0 60.75-49.25 110-110 110s-110-49.25-110-110 49.25-110 110-110 110 49.25 110 110zm0 0" fill="#fff"/><path d="m256 105.933594v220c60.75 0 110-49.25 110-110s-49.25-110-110-110zm0 0" fill="#ebebeb"/><path d="m296 215.933594c0 22.089844-17.910156 40-40 40s-40-17.910156-40-40 17.910156-40 40-40 40 17.910156 40 40zm0 0" fill="#fff"/><path d="m256 175.933594v80c22.089844 0 40-17.910156 40-40s-17.910156-40-40-40zm0 0" fill="#ebebeb"/><path d="m256 270.933594c-30.328125 0-55-24.671875-55-55s24.671875-55 55-55 55 24.671875 55 55-24.671875 55-55 55zm0-80c-13.785156 0-25 11.214844-25 25s11.214844 25 25 25 25-11.214844 25-25-11.214844-25-25-25zm0 0" fill="#5c6b99"/><path d="m256 160.933594v30c13.785156 0 25 11.214844 25 25s-11.214844 25-25 25v30c30.328125 0 55-24.671875 55-55s-24.671875-55-55-55zm0 0" fill="#455373"/><path d="m271.910156 135.554688c0 8.789062-7.121094 15.914062-15.910156 15.914062s-15.910156-7.125-15.910156-15.914062c0-8.785157 7.121094-15.910157 15.910156-15.910157s15.910156 7.125 15.910156 15.910157zm0 0" fill="#ff6680"/><path d="m256 119.644531v31.824219c8.789062 0 15.910156-7.125 15.910156-15.914062 0-8.785157-7.121094-15.910157-15.910156-15.910157zm0 0" fill="#d14960"/></svg>