<svg height="512pt" viewBox="0 0 512 512" width="512pt" xmlns="http://www.w3.org/2000/svg"><path d="m512 256c0 2.320312-.03125 4.640625-.101562 6.941406-.339844 12.867188-1.628907 25.5-3.808594 37.828125-.820313 4.652344-1.761719 9.25-2.839844 13.808594-23.710938 101.371094-107.679688 179.542969-212.070312 194.730469-4.328126.632812-8.699219 1.152344-13.101563 1.5625-4.238281.398437-8.519531.6875-12.816406.878906-3.730469.171875-7.492188.25-11.261719.25-.828125 0-1.660156 0-2.480469-.011719-1.539062-.019531-3.078125-.039062-4.621093-.089843-10.148438-.269532-20.136719-1.136719-29.957032-2.570313-1.851562-.269531-3.691406-.558594-5.519531-.867187-1.121094-.191407-2.242187-.382813-3.351563-.589844-1.730468-.3125-3.449218-.640625-5.171874-.992188-116.898438-23.667968-204.898438-127-204.898438-250.878906 0-141.378906 114.621094-256 256-256 116.921875 0 215.53125 78.378906 246.160156 185.46875 2.480469 8.660156 4.511719 17.5 6.070313 26.511719 1.007812 5.859375 1.828125 11.789062 2.441406 17.78125.027344.339843.066406.667969.097656 1.007812.230469 2.320313.421875 4.660157.582031 7 .429688 6.019531.648438 12.101563.648438 18.230469zm0 0" fill="#808aff"/><path d="m505.25 314.578125c-23.710938 101.371094-107.679688 179.542969-212.070312 194.730469-4.328126.632812-8.699219 1.152344-13.101563 1.5625-.476563-.460938-175.929687-175.902344-175.929687-175.902344l86.292968-189.578125 129.75 9.769531 35.078125 35.089844s49.851563 24.191406 50.011719 24.359375c.167969.171875 99.820312 99.8125 99.96875 99.96875zm0 0" fill="#666ecc"/><path d="m204.058594 156c-27.230469-27.226562-71.378906-27.226562-98.605469 0-27.230469 27.230469-27.230469 71.378906 0 98.609375 27.226563 27.226563 71.375 27.226563 98.605469 0 27.230468-27.230469 27.230468-71.378906 0-98.609375zm0 0" fill="#ffdf4c"/><path d="m105.453125 156 98.609375 98.609375c27.230469-27.230469 27.230469-71.378906 0-98.609375s-71.378906-27.230469-98.609375 0zm0 0" fill="#d4b93f"/><path d="m428.621094 272c0-45.414062-36.8125-82.230469-82.230469-82.230469-1.175781 0-2.339844.039063-3.503906.085938-14.492188-37.363281-50.78125-63.855469-93.265625-63.855469-52.265625 0-95.15625 40.097656-99.609375 91.210938-.128907 0-.257813-.011719-.390625-.011719-36.65625 0-66.371094 29.714843-66.371094 66.375 0 .4375.011719.875.019531 1.3125h-.019531c0 38.925781 31.558594 70.480469 70.484375 70.480469h204.40625c38.925781 0 70.480469-31.554688 70.480469-70.480469.289062-4.609375 0-8.566407 0-12.886719zm0 0" fill="#fff"/><path d="m428.621094 272c0-45.414062-36.8125-82.230469-82.230469-82.230469-1.175781 0-2.339844.039063-3.503906.085938-13.757813-35.476563-47.179688-61.136719-86.886719-63.636719v229.148438h102.140625c38.925781 0 70.480469-31.554688 70.480469-70.484376.289062-4.605468 0-8.5625 0-12.882812zm0 0" fill="#ebebeb"/></svg>