<svg height="512pt" viewBox="0 0 512 512" width="512pt" xmlns="http://www.w3.org/2000/svg"><path d="m512 256c0 1.730469-.019531 3.460938-.058594 5.179688-.03125 1.859374-.089844 3.71875-.171875 5.570312-.089843 2.398438-.230469 4.800781-.390625 7.179688-.199218 2.839843-.4375 5.671874-.730468 8.480468-.289063 2.808594-.617188 5.609375-1 8.390625-.617188 4.550781-1.359376 9.070313-2.207032 13.539063-1.292968 6.761718-2.851562 13.421875-4.671875 19.980468-16.269531 58.929688-53.089843 109.328126-102.257812 143.019532-.5.339844-1.011719.691406-1.511719 1.03125-29.738281 20.058594-63.910156 34.039062-100.738281 40.148437-13.75 2.289063-27.871094 3.480469-42.261719 3.480469-.671875 0-1.339844 0-2-.011719-1.710938-.007812-3.398438-.039062-5.101562-.089843-.367188-.007813-.738282-.019532-1.109376-.039063-1.429687-.039063-2.859374-.097656-4.289062-.167969-1.410156-.0625-2.820312-.140625-4.21875-.230468-1.972656-.121094-3.929688-.28125-5.882812-.449219-.179688-.023438-.367188-.03125-.546876-.050781-4.671874-.410157-9.3125-.960938-13.910156-1.632813-1.851562-.269531-3.691406-.558594-5.519531-.867187-1.121094-.191407-2.242187-.382813-3.351563-.589844-1.730468-.3125-3.449218-.640625-5.171874-.992188-116.898438-23.667968-204.898438-127-204.898438-250.878906 0-141.378906 114.621094-256 256-256 116.921875 0 215.53125 78.378906 246.160156 185.46875 2.480469 8.660156 4.511719 17.5 6.070313 26.511719 1.007812 5.859375 1.828125 11.789062 2.441406 17.78125.027344.339843.066406.667969.097656 1.007812.808594 8.289063 1.230469 16.71875 1.230469 25.230469zm0 0" fill="#ffdf4c"/><path d="m502.769531 324.320312c-16.269531 58.929688-53.089843 109.328126-102.257812 143.019532-.5.339844-1.011719.691406-1.511719 1.03125-29.738281 20.058594-63.910156 34.039062-100.738281 40.148437-13.75 2.289063-27.871094 3.480469-42.261719 3.480469-.671875 0-1.339844 0-2-.011719-1.710938-.007812-3.398438-.039062-5.101562-.089843-.367188-.007813-.738282-.019532-1.109376-.039063-1.429687-.039063-2.859374-.097656-4.289062-.167969-1.410156-.0625-2.820312-.140625-4.21875-.230468l-131-130.480469 113.5-247.449219s105.527344 105.519531 105.796875 105.789062h91.140625l84 85zm0 0" fill="#d4b93f"/><path d="m215.292969 282.976562h93.976562v32.832032h-93.976562zm0 0" fill="#ff6680"/><path d="m258.71875 239.316406h160v110h-160zm0 0" fill="#5c6b99"/><path d="m338.71875 239.316406h80v110h-80zm0 0" fill="#455373"/><path d="m108.28125 148.234375h120v232.742187h-120zm0 0" fill="#808aff"/><path d="m168.28125 148.234375h60v232.742187h-60zm0 0" fill="#666ecc"/><path d="m228.28125 186.023438c0 33.136718-26.863281 60-60 60s-60-26.863282-60-60c0-33.136719 26.863281-60 60-60s60 26.863281 60 60zm0 0" fill="#fff"/><path d="m168.28125 126.023438v120c33.136719 0 60-26.863282 60-60 0-33.136719-26.863281-60-60-60zm0 0" fill="#ebebeb"/><path d="m168.28125 261.023438c-41.355469 0-75-33.644532-75-75 0-41.355469 33.644531-75 75-75s75 33.644531 75 75c0 41.355468-33.644531 75-75 75zm0-120c-24.8125 0-45 20.1875-45 45s20.1875 45 45 45 45-20.1875 45-45-20.1875-45-45-45zm0 0" fill="#5c6b99"/><path d="m168.28125 111.023438v30c24.8125 0 45 20.1875 45 45s-20.1875 45-45 45v30c41.355469 0 75-33.644532 75-75 0-41.355469-33.644531-75-75-75zm0 0" fill="#455373"/></svg>