<svg height="512pt" viewBox="0 0 512.00042 512" width="512pt" xmlns="http://www.w3.org/2000/svg"><path d="m512 256.269531c0 1.628907-.019531 3.261719-.058594 4.878907-.070312 3.480468-.203125 6.953124-.410156 10.402343-.160156 2.660157-.359375 5.308594-.601562 7.949219-1.148438 12.621094-3.210938 24.96875-6.121094 36.992188-27.207032 112.289062-128.4375 195.648437-249.078125 195.507812-3.929688 0-7.839844-.089844-11.730469-.28125-1.691406-.070312-3.359375-.167969-5.039062-.277344-.539063-.03125-1.089844-.070312-1.628907-.109375-.363281-.03125-.722656-.050781-1.082031-.082031-5.890625-.449219-11.71875-1.101562-17.480469-1.949219-1.769531-.261719-3.539062-.53125-5.300781-.832031-2.519531-.410156-5.019531-.867188-7.507812-1.359375-.230469-.050781-.472657-.089844-.699219-.140625-2.660157-.539062-5.320313-1.109375-7.953125-1.726562-10.136719-2.382813-20.039063-5.363282-29.667969-8.902344-3.519531-1.300782-7-2.667969-10.449219-4.121094-92.421875-38.6875-157.300781-130.039062-157.191406-236.488281.148438-141.378907 114.890625-255.878907 256.269531-255.730469 114.710938.121094 211.730469 75.679688 244.152344 179.691406.578125 1.839844 1.136719 3.6875 1.667969 5.550782 1.800781 6.277343 3.371094 12.65625 4.691406 19.117187.507812 2.511719.988281 5.03125 1.429688 7.5625.089843.519531.179687 1.039063.269531 1.558594 1.007812 6.011719 1.800781 12.089843 2.378906 18.238281.140625 1.5.269531 3.011719.378906 4.523438.511719 6.609374.773438 13.289062.761719 20.027343zm0 0" fill="#808aff"/><path d="m504.808594 316.492188c-27.207032 112.289062-128.4375 195.648437-249.078125 195.507812-3.929688 0-7.839844-.089844-11.730469-.28125l-88-87.71875 50.25-225.351562c-.109375-.109376-28.328125-28.339844-28.328125-28.339844l23.113281-33.351563-11.035156-11.035156-4.03125-14.972656s50.402344-22.039063 50.882812-21.570313c.257813.25 16.929688 16.929688 17 17 .007813.011719.019532.019532.039063.042969l25.898437-14.960937c.230469.390624 225 225 225 225 .011719.007812.011719.019531.019532.03125zm0 0" fill="#666ecc"/><path d="m241 165.113281h30v43.136719h-30zm0 0" fill="#c0dafb"/><path d="m256 165.113281h15v43.136719h-15zm0 0" fill="#a0b9d8"/><path d="m256.003906 180.25c31.085938-17.949219 41.738282-57.703125 23.789063-88.792969l-112.582031 65c17.949218 31.089844 57.703124 41.742188 88.792968 23.792969zm0 0" fill="#fff"/><path d="m223.503906 123.957031 32.5 56.292969c31.085938-17.949219 41.738282-57.703125 23.789063-88.789062zm0 0" fill="#ebebeb"/><path d="m210.160156 114.28125c-1.851562-3.207031-.746094-7.320312 2.457032-9.171875 3.207031-1.851563 7.324218-.75 9.175781 2.457031l20.164062-11.640625c-8.28125-14.351562-26.632812-19.265625-40.980469-10.984375-14.347656 8.285156-19.265624 26.632813-10.980468 40.984375zm0 0" fill="#ffdf4c"/><path d="m200.976562 84.945312 11.644532 20.164063c3.207031-1.851563 7.320312-.75 9.171875 2.457031l20.164062-11.640625c-8.28125-14.347656-26.632812-19.265625-40.980469-10.980469zm0 0" fill="#d4b93f"/><path d="m156 198.652344h200v225.347656h-200zm0 0" fill="#ff6680"/><path d="m256 198.652344h100v225.347656h-100zm0 0" fill="#d14960"/><path d="m231 368h50v56h-50zm0 0" fill="#45e595"/><path d="m256 368h25v56h-25zm0 0" fill="#39bf7c"/><path d="m186 228.183594h55v40h-55zm0 0" fill="#fff"/><path d="m271 228.183594h55v40h-55zm0 0" fill="#ebebeb"/><path d="m186 298.183594h55v40h-55zm0 0" fill="#fff"/><path d="m271 298.183594h55v40h-55zm0 0" fill="#ebebeb"/></svg>