<svg height="512pt" viewBox="0 0 512 512" width="512pt" xmlns="http://www.w3.org/2000/svg"><path d="m512 256c0 6.03125-.210938 12.011719-.621094 17.929688-.199218 2.839843-.4375 5.671874-.730468 8.480468-.289063 2.808594-.617188 5.609375-1 8.390625-1.097657 8.078125-2.570313 16.050781-4.417969 23.871094 0 .019531-.011719.039063-.011719.058594-1.390625 5.941406-2.988281 11.789062-4.789062 17.558593-.398438 1.289063-.808594 2.570313-1.230469 3.851563-29.359375 89.167969-106.398438 156.6875-200.9375 172.378906-4.050781.679688-8.140625 1.261719-12.261719 1.742188-8.71875 1.019531-17.570312 1.597656-26.519531 1.71875-.492188 0-.992188.007812-1.480469.007812-.671875.011719-1.328125.011719-2 .011719-2.378906 0-4.738281-.03125-7.101562-.101562-.367188-.007813-.738282-.019532-1.109376-.039063-.597656-.019531-1.1875-.039063-1.789062-.070313-4.410156-.148437-8.800781-.429687-13.148438-.828124-4.671874-.410157-9.3125-.960938-13.910156-1.632813-1.851562-.269531-3.691406-.558594-5.519531-.867187-1.121094-.191407-2.242187-.382813-3.351563-.589844-1.730468-.3125-3.449218-.640625-5.171874-.992188-116.898438-23.667968-204.898438-127-204.898438-250.878906 0-141.378906 114.621094-256 256-256 116.921875 0 215.53125 78.378906 246.160156 185.46875 2.480469 8.660156 4.511719 17.5 6.070313 26.511719 1.007812 5.859375 1.828125 11.789062 2.441406 17.78125.027344.339843.066406.667969.097656 1.007812.761719 7.789063 1.179688 15.699219 1.21875 23.691407.011719.507812.011719 1.027343.011719 1.539062zm0 0" fill="#45e595"/><path d="m505.230469 314.671875c0 .019531-.011719.039063-.011719.058594-1.390625 5.941406-2.988281 11.789062-4.789062 17.558593-.398438 1.289063-.808594 2.570313-1.230469 3.851563-29.359375 89.167969-106.398438 156.6875-200.9375 172.378906-4.050781.679688-8.140625 1.261719-12.261719 1.742188-8.71875 1.019531-17.570312 1.597656-26.519531 1.71875-.492188 0-.992188.007812-1.480469.007812l-172-171.578125 11.699219-34 208.832031-157.488281 11 11.4375s35.789062 2.128906 38.890625 5.5c.347656.320313 148.558594 148.53125 148.808594 148.8125zm0 0" fill="#39bf7c"/><path d="m391.6875 262.359375v-11.335937h-11.332031v-22.664063h-25.097657v-45.335937h5.667969v-5.664063c0-9.390625-7.609375-17-17-17h-55.679687v164.230469h126.109375v-62.230469zm0 0" fill="#fff"/><path d="m391.6875 262.359375v-11.335937h-11.335938v-22.664063h-19.425781v96.230469h53.425781v-62.230469zm0 0" fill="#ebebeb"/><path d="m97.703125 148.921875h208.832031v175.667969h-208.832031zm0 0" fill="#ffdf4c"/><path d="m202.117188 148.921875h104.417968v175.667969h-104.417968zm0 0" fill="#d4b93f"/><path d="m86 306.410156h340v34h-340zm0 0" fill="#808aff"/><path d="m189.578125 323.410156c0 21.90625-17.757813 39.667969-39.667969 39.667969-21.90625 0-39.667968-17.761719-39.667968-39.667969s17.761718-39.667968 39.667968-39.667968c21.910156 0 39.667969 17.761718 39.667969 39.667968zm0 0" fill="#5c6b99"/><path d="m149.910156 283.742188v79.332031c21.90625 0 39.667969-17.757813 39.667969-39.664063s-17.757813-39.667968-39.667969-39.667968zm0 0" fill="#455373"/><path d="m166.910156 323.410156c0 9.390625-7.609375 17-17 17-9.386718 0-17-7.609375-17-17s7.613282-17 17-17c9.390625 0 17 7.609375 17 17zm0 0" fill="#fff"/><path d="m149.910156 306.410156v34c9.390625 0 17-7.609375 17-17s-7.609375-17-17-17zm0 0" fill="#ebebeb"/><path d="m400.59375 323.410156c0 21.90625-17.761719 39.667969-39.667969 39.667969-21.910156 0-39.667969-17.761719-39.667969-39.667969s17.757813-39.667968 39.667969-39.667968c21.90625 0 39.667969 17.761718 39.667969 39.667968zm0 0" fill="#5c6b99"/><path d="m360.925781 283.742188v79.332031c21.90625 0 39.667969-17.757813 39.667969-39.664063s-17.761719-39.667968-39.667969-39.667968zm0 0" fill="#455373"/><path d="m377.925781 323.410156c0 9.390625-7.613281 17-17 17-9.390625 0-17-7.609375-17-17s7.609375-17 17-17c9.386719 0 17 7.609375 17 17zm0 0" fill="#fff"/><path d="m360.925781 306.410156v34c9.390625 0 17-7.609375 17-17s-7.609375-17-17-17zm0 0" fill="#ebebeb"/><path d="m397.355469 228.359375h-17v34h34v-17c0-9.390625-7.613281-17-17-17zm0 0" fill="#d4b93f"/><path d="m321.257812 183.023438h39.667969v45.335937h-39.667969zm0 0" fill="#c0dafb"/><path d="m266.472656 247.648438v22.902343l-19.832031-11.453125-19.832031-11.449218 19.832031-11.453126 19.832031-11.449218zm0 0" fill="#455373"/><path d="m162.894531 219.316406h79.332031v56.664063h-79.332031zm0 0" fill="#ff6680"/><path d="m202.117188 219.316406h40.109374v56.664063h-40.109374zm0 0" fill="#d14960"/><path d="m202.117188 199.683594c0 10.832031-8.777344 19.613281-19.609376 19.613281-10.832031 0-19.613281-8.78125-19.613281-19.613281 0-10.828125 8.78125-19.609375 19.613281-19.609375 10.832032 0 19.609376 8.78125 19.609376 19.609375zm0 0" fill="#5c6b99"/><path d="m236.117188 202.296875c0 9.390625-7.609376 17-17 17-9.386719 0-17-7.609375-17-17s7.613281-17 17-17c9.390624 0 17 7.609375 17 17zm0 0" fill="#455373"/></svg>