<svg height="512pt" viewBox="0 0 512 512.00015" width="512pt" xmlns="http://www.w3.org/2000/svg"><path d="m512 256.269531c0 5.089844-.160156 10.199219-.46875 15.28125-.519531 8.667969-1.472656 17.21875-2.839844 25.628907-1.460937 9.011718-3.382812 17.859374-5.761718 26.53125-29.429688 107.628906-127.339844 186.9375-243.929688 188.269531-1.089844.019531-2.179688.019531-3.269531.019531-4.878907 0-9.761719-.140625-14.640625-.429688-.699219-.039062-1.390625-.082031-2.089844-.128906-1.167969-.070312-2.339844-.160156-3.5-.25-6.570312-.519531-13.109375-1.292968-19.621094-2.332031-12.777344-2.019531-25.398437-4.980469-37.730468-8.910156-7.089844-2.269531-14.089844-4.839844-20.957032-7.730469-92.421875-38.6875-157.300781-130.039062-157.191406-236.488281.148438-141.378907 114.890625-255.878907 256.269531-255.730469 126.121094.128906 230.851563 91.449219 251.871094 211.53125 1.140625 7.417969 2.269531 14.839844 2.910156 22.320312.058594.738282.121094 1.46875.179688 2.207032.257812 3.363281.460937 6.722656.578125 10.082031.132812 3.378906.191406 6.75.191406 10.128906zm0 0" fill="#ff6680"/><path d="m502.929688 323.710938c-29.429688 107.628906-127.339844 186.9375-243.929688 188.269531l-128-127.820313 79.019531-141.25-6.621093-6.628906s104.523437-107.582031 105.632812-106.472656c.089844.082031 192.820312 192.8125 193 193 .089844.082031.160156.171875.25.25.058594.070312.117188.132812.179688.203125.160156.148437.320312.296875.46875.449219zm0 0" fill="#d14960"/><path d="m381 384.160156h-250v-25c0-69.035156 55.964844-125 125-125s125 55.964844 125 125zm0 0" fill="#ffdf4c"/><path d="m256 234.160156v150h125v-25c0-69.035156-55.964844-125-125-125zm0 0" fill="#d4b93f"/><path d="m331 182.839844c0 41.421875-33.578125 75-75 75s-75-33.578125-75-75 33.578125-75 75-75 75 33.578125 75 75zm0 0" fill="#ffbfab"/><path d="m256 107.839844v150c41.421875 0 75-33.578125 75-75s-33.578125-75-75-75zm0 0" fill="#ffa78f"/><path d="m296 304.230469h-80l14.171875-30h51.65625zm0 0" fill="#5c6b99"/><path d="m256 304.230469h40l-14.171875-30h-25.828125zm0 0" fill="#455373"/><path d="m196 294.089844h120v70h-120zm0 0" fill="#808aff"/><path d="m256 294.089844h60v70h-60zm0 0" fill="#666ecc"/><path d="m276 329.089844c0 11.046875-8.953125 20-20 20s-20-8.953125-20-20c0-11.042969 8.953125-20 20-20s20 8.957031 20 20zm0 0" fill="#c0dafb"/><path d="m256 309.089844v40c11.046875 0 20-8.953125 20-20 0-11.042969-8.953125-20-20-20zm0 0" fill="#a0b9d8"/></svg>