<svg height="512pt" viewBox="0 0 512 512.00015" width="512pt" xmlns="http://www.w3.org/2000/svg"><path d="m512 256.269531c0 5.089844-.160156 10.199219-.46875 15.28125-.5625 9.417969-1.640625 18.699219-3.191406 27.820313-.109375.628906-.21875 1.257812-.328125 1.878906-18.082031 101.351562-95.792969 182.03125-195.511719 204.488281-15.148438 3.421875-30.808594 5.492188-46.839844 6.070313-3.289062.132812-6.601562.191406-9.929687.191406-4.878907 0-9.761719-.140625-14.640625-.429688-8.441406-.480468-16.859375-1.378906-25.210938-2.710937-12.777344-2.019531-25.398437-4.980469-37.730468-8.910156-7.089844-2.269531-14.089844-4.839844-20.957032-7.730469-92.421875-38.6875-157.300781-130.039062-157.191406-236.488281.148438-141.378907 114.890625-255.878907 256.269531-255.730469 126.121094.128906 230.851563 91.449219 251.871094 211.53125 1.140625 7.417969 2.269531 14.839844 2.910156 22.320312.347657 4.089844.609375 8.1875.757813 12.289063.132812 3.378906.191406 6.75.191406 10.128906zm0 0" fill="#ffdf4c"/><path d="m508.011719 301.25c-18.082031 101.351562-95.792969 182.03125-195.511719 204.488281-15.148438 3.421875-30.808594 5.492188-46.839844 6.070313l-117.449218-117.207032-17.351563-113.292968-14.859375-14.5 25.730469-40 57.648437-83.71875 29.292969 29.261718 46.777344-40.871093 28.480469 28.480469 46.5-16.289063zm0 0" fill="#d4b93f"/><path d="m241 160.8125h30v98.210938h-30zm0 0" fill="#808aff"/><path d="m256 160.8125h15v98.210938h-15zm0 0" fill="#666ecc"/><path d="m256 196.875c-15.1875 0-27.5-12.3125-27.5-27.5v-18.453125c0-15.1875 12.3125-27.5 27.5-27.5s27.5 12.3125 27.5 27.5v18.453125c0 15.1875-12.3125 27.5-27.5 27.5zm0 0" fill="#5c6b99"/><path d="m256 123.421875v73.453125c15.1875 0 27.5-12.3125 27.5-27.5v-18.453125c0-15.1875-12.3125-27.5-27.5-27.5zm0 0" fill="#455373"/><path d="m163.308594 167.511719 28.191406 10.261719-33.585938 92.289062-28.191406-10.261719zm0 0" fill="#808aff"/><path d="m143.8125 264.925781 33.585938-92.289062 14.097656 5.132812-33.589844 92.289063zm0 0" fill="#666ecc"/><path d="m165.066406 206.53125c-14.269531-5.191406-21.628906-20.972656-16.433594-35.246094l6.308594-17.339844c5.195313-14.269531 20.976563-21.628906 35.246094-16.433593 14.273438 5.195312 21.632812 20.972656 16.4375 35.246093l-6.3125 17.339844c-5.191406 14.273438-20.972656 21.628906-35.246094 16.433594zm0 0" fill="#5c6b99"/><path d="m190.1875 137.511719-25.121094 69.019531c14.273438 5.195312 30.054688-2.160156 35.246094-16.433594l6.3125-17.339844c5.195312-14.273437-2.164062-30.050781-16.4375-35.246093zm0 0" fill="#455373"/><path d="m320.503906 177.78125 28.191406-10.257812 33.585938 92.289062-28.191406 10.257812zm0 0" fill="#808aff"/><path d="m334.597656 172.652344 14.097656-5.128906 33.585938 92.289062-14.09375 5.128906zm0 0" fill="#666ecc"/><path d="m346.933594 206.53125c-14.269532 5.195312-30.050782-2.160156-35.246094-16.433594l-6.3125-17.339844c-5.195312-14.273437 2.164062-30.054687 16.4375-35.246093 14.273438-5.195313 30.050781 2.164062 35.246094 16.433593l6.3125 17.339844c5.191406 14.273438-2.164063 30.054688-16.4375 35.246094zm0 0" fill="#5c6b99"/><path d="m321.8125 137.511719 25.121094 69.019531c14.273437-5.191406 21.628906-20.972656 16.4375-35.246094l-6.3125-17.339844c-5.195313-14.269531-20.976563-21.628906-35.246094-16.433593zm0 0" fill="#455373"/><path d="m363.792969 394.601562h-215.582031l-22.210938-145h260zm0 0" fill="#45e595"/><path d="m256 249.601562v145h107.792969l22.207031-145zm0 0" fill="#39bf7c"/><path d="m116 226.804688h280v40h-280zm0 0" fill="#fff"/><path d="m256 226.804688h140v40h-140zm0 0" fill="#ebebeb"/></svg>