<svg height="512pt" viewBox="0 0 512 512" width="512pt" xmlns="http://www.w3.org/2000/svg"><path d="m512 256c0 6.03125-.210938 12.011719-.621094 17.929688-.199218 2.839843-.4375 5.671874-.730468 8.480468-.289063 2.808594-.617188 5.609375-1 8.390625-.820313 6-1.839844 11.9375-3.070313 17.800781-20.699219 99.160157-98.796875 177.269532-197.957031 197.976563-3.429688.722656-6.882813 1.363281-10.359375 1.941406-7.832031 1.300781-15.792969 2.25-23.851563 2.820313-5.691406.410156-11.441406.628906-17.230468.648437-.390626.011719-.789063.011719-1.179688.011719-2.378906 0-4.738281-.03125-7.101562-.101562-.367188-.007813-.738282-.019532-1.109376-.039063-5.019531-.148437-10-.449219-14.9375-.898437-4.671874-.410157-9.3125-.960938-13.910156-1.632813-1.851562-.269531-3.691406-.558594-5.519531-.867187-1.121094-.191407-2.242187-.382813-3.351563-.589844-1.730468-.3125-3.449218-.640625-5.171874-.992188-3.1875-.648437-6.359376-1.347656-9.5-2.117187-112.136719-27.203125-195.398438-128.261719-195.398438-248.761719 0-141.378906 114.621094-256 256-256 116.921875 0 215.53125 78.378906 246.160156 185.46875 2.480469 8.660156 4.511719 17.5 6.070313 26.511719 1.007812 5.859375 1.828125 11.789062 2.441406 17.78125.027344.339843.066406.667969.097656 1.007812.109375 1.089844.210938 2.179688.289063 3.269531.332031 3.851563.582031 7.730469.722656 11.632813.046875 1.128906.089844 2.257813.117188 3.386719.070312 2.3125.101562 4.621094.101562 6.941406zm0 0" fill="#45e595"/><path d="m506.578125 308.601562c-20.699219 99.160157-98.796875 177.269532-197.957031 197.976563-.121094-.128906-149.199219-149.207031-149.371094-149.367187-.171875-.171876-.328125-.339844-.5-.5-12.820312-12.390626-23.269531-27.210938-30.628906-43.710938l-22.121094-22 248.988281-133.988281s151.5625 151.558593 151.589844 151.589843zm0 0" fill="#39bf7c"/><path d="m396 256c0 77.320312-62.679688 140-140 140s-140-62.679688-140-140 62.679688-140 140-140 140 62.679688 140 140zm0 0" fill="#808aff"/><path d="m256 116v280c77.320312 0 140-62.679688 140-140s-62.679688-140-140-140zm0 0" fill="#616cba"/><path d="m236.34375 117.378906c-19.132812 29.539063-45.34375 80.585938-45.34375 138.621094s26.210938 109.082031 45.34375 138.621094c6.421875.902344 12.984375 1.378906 19.65625 1.378906s13.234375-.476562 19.65625-1.378906c19.132812-29.539063 45.34375-80.585938 45.34375-138.621094s-26.210938-109.082031-45.34375-138.621094c-6.421875-.902344-12.984375-1.378906-19.65625-1.378906s-13.234375.476562-19.65625 1.378906zm0 0" fill="#666ecc"/><path d="m275.65625 117.378906c-6.421875-.902344-12.984375-1.378906-19.65625-1.378906v280c6.671875 0 13.234375-.476562 19.65625-1.378906 19.132812-29.539063 45.34375-80.585938 45.34375-138.621094s-26.210938-109.082031-45.34375-138.621094zm0 0" fill="#7886ea"/><path d="m106 221h300v70h-300zm0 0" fill="#ff6680"/><path d="m256 221h150v70h-150zm0 0" fill="#d14960"/><g fill="#fff"><path d="m201.09375 281.59375h-8.898438l-22.8125-36.316406v36.316406h-8.898437v-51.1875h8.898437l22.886719 36.457031v-36.457031h8.824219zm0 0"/><path d="m246.921875 258.742188h-21.023437v15.75h24.574218v7.101562h-33.46875v-51.1875h33.222656v7.171875h-24.328124v14.132813h21.023437zm0 0"/><path d="m303.261719 268.9375 7.875-38.53125h8.824219l-11.8125 51.1875h-8.507813l-9.738281-37.371094-9.949219 37.371094h-8.542969l-11.8125-51.1875h8.824219l7.945313 38.460938 9.773437-38.460938h7.453125zm0 0"/><path d="m358.617188 268.410156c0-2.25-.789063-3.984375-2.371094-5.203125-1.582032-1.21875-4.4375-2.449219-8.5625-3.691406s-7.40625-2.625-9.84375-4.148437c-4.664063-2.929688-6.996094-6.75-6.996094-11.460938 0-4.125 1.683594-7.523438 5.046875-10.195312 3.363281-2.671876 7.726563-4.007813 13.09375-4.007813 3.566406 0 6.738281.65625 9.527344 1.96875 2.789062 1.3125 4.980469 3.183594 6.574219 5.609375 1.59375 2.421875 2.390624 5.113281 2.390624 8.066406h-8.859374c0-2.671875-.835938-4.761718-2.511719-6.273437s-4.074219-2.269531-7.191407-2.269531c-2.902343 0-5.160156.621093-6.765624 1.863281-1.605469 1.242187-2.410157 2.976562-2.410157 5.203125 0 1.875.867188 3.4375 2.605469 4.691406 1.734375 1.253906 4.59375 2.472656 8.578125 3.65625 3.980469 1.183594 7.183594 2.53125 9.597656 4.042969 2.414063 1.511719 4.183594 3.246093 5.308594 5.203125 1.125 1.957031 1.6875 4.25 1.6875 6.875 0 4.265625-1.636719 7.65625-4.90625 10.175781-3.265625 2.519531-7.703125 3.78125-13.304687 3.78125-3.703126 0-7.109376-.6875-10.214844-2.058594-3.105469-1.371093-5.519532-3.261719-7.242188-5.675781-1.71875-2.414062-2.582031-5.226562-2.582031-8.441406h8.894531c0 2.90625.960938 5.15625 2.882813 6.75 1.921875 1.597656 4.675781 2.394531 8.261719 2.394531 3.09375 0 5.421874-.628906 6.980468-1.882813 1.558594-1.253906 2.332032-2.910156 2.332032-4.972656zm0 0"/></g><path d="m303.261719 268.9375 7.875-38.53125h8.824219l-11.8125 51.1875h-8.507813l-9.738281-37.371094-9.949219 37.371094h-8.542969l-11.8125-51.1875h8.824219l7.945313 38.460938 9.773437-38.460938h7.453125zm0 0" fill="#ebebeb"/><path d="m358.617188 268.410156c0-2.25-.789063-3.984375-2.371094-5.203125-1.582032-1.21875-4.4375-2.449219-8.5625-3.691406s-7.40625-2.625-9.84375-4.148437c-4.664063-2.929688-6.996094-6.75-6.996094-11.460938 0-4.125 1.683594-7.523438 5.046875-10.195312 3.363281-2.671876 7.726563-4.007813 13.09375-4.007813 3.566406 0 6.738281.65625 9.527344 1.96875 2.789062 1.3125 4.980469 3.183594 6.574219 5.609375 1.59375 2.421875 2.390624 5.113281 2.390624 8.066406h-8.859374c0-2.671875-.835938-4.761718-2.511719-6.273437s-4.074219-2.269531-7.191407-2.269531c-2.902343 0-5.160156.621093-6.765624 1.863281-1.605469 1.242187-2.410157 2.976562-2.410157 5.203125 0 1.875.867188 3.4375 2.605469 4.691406 1.734375 1.253906 4.59375 2.472656 8.578125 3.65625 3.980469 1.183594 7.183594 2.53125 9.597656 4.042969 2.414063 1.511719 4.183594 3.246093 5.308594 5.203125 1.125 1.957031 1.6875 4.25 1.6875 6.875 0 4.265625-1.636719 7.65625-4.90625 10.175781-3.265625 2.519531-7.703125 3.78125-13.304687 3.78125-3.703126 0-7.109376-.6875-10.214844-2.058594-3.105469-1.371093-5.519532-3.261719-7.242188-5.675781-1.71875-2.414062-2.582031-5.226562-2.582031-8.441406h8.894531c0 2.90625.960938 5.15625 2.882813 6.75 1.921875 1.597656 4.675781 2.394531 8.261719 2.394531 3.09375 0 5.421874-.628906 6.980468-1.882813 1.558594-1.253906 2.332032-2.910156 2.332032-4.972656zm0 0" fill="#ebebeb"/></svg>