<svg height="512pt" viewBox="0 0 512 512" width="512pt" xmlns="http://www.w3.org/2000/svg"><path d="m512 256c0 6.03125-.210938 12.011719-.621094 17.929688-.199218 2.839843-.4375 5.671874-.730468 8.480468-.289063 2.808594-.617188 5.609375-1 8.390625-.820313 6-1.839844 11.9375-3.070313 17.800781-20.699219 99.160157-98.796875 177.269532-197.957031 197.976563-3.429688.722656-6.882813 1.363281-10.359375 1.941406-7.832031 1.300781-15.792969 2.25-23.851563 2.820313-5.691406.410156-11.441406.628906-17.230468.648437-.390626.011719-.789063.011719-1.179688.011719-2.378906 0-4.738281-.03125-7.101562-.101562-.367188-.007813-.738282-.019532-1.109376-.039063-5.019531-.148437-10-.449219-14.9375-.898437-4.671874-.410157-9.3125-.960938-13.910156-1.632813-1.851562-.269531-3.691406-.558594-5.519531-.867187-1.121094-.191407-2.242187-.382813-3.351563-.589844-1.730468-.3125-3.449218-.640625-5.171874-.992188-3.1875-.648437-6.359376-1.347656-9.5-2.117187-112.136719-27.203125-195.398438-128.261719-195.398438-248.761719 0-141.378906 114.621094-256 256-256 116.921875 0 215.53125 78.378906 246.160156 185.46875 2.480469 8.660156 4.511719 17.5 6.070313 26.511719 1.007812 5.859375 1.828125 11.789062 2.441406 17.78125.027344.339843.066406.667969.097656 1.007812.109375 1.089844.210938 2.179688.289063 3.269531.332031 3.851563.582031 7.730469.722656 11.632813.046875 1.128906.089844 2.257813.117188 3.386719.070312 2.3125.101562 4.621094.101562 6.941406zm0 0" fill="#ff6680"/><path d="m506.578125 308.601562c-20.699219 99.160157-98.796875 177.269532-197.957031 197.976563-.121094-.128906-149.199219-149.207031-149.371094-149.367187-.171875-.171876-.328125-.339844-.5-.5-12.820312-12.390626-23.269531-27.210938-30.628906-43.710938l-22.121094-22 248.988281-133.988281s151.5625 151.558593 151.589844 151.589843zm0 0" fill="#d14960"/><path d="m396 256c0 77.320312-62.679688 140-140 140s-140-62.679688-140-140 62.679688-140 140-140 140 62.679688 140 140zm0 0" fill="#c0dafb"/><path d="m256 116v280c77.320312 0 140-62.679688 140-140s-62.679688-140-140-140zm0 0" fill="#a0b9d8"/><path d="m236.34375 117.378906c-19.132812 29.539063-45.34375 80.585938-45.34375 138.621094s26.210938 109.082031 45.34375 138.621094c6.421875.902344 12.984375 1.378906 19.65625 1.378906s13.234375-.476562 19.65625-1.378906c19.132812-29.539063 45.34375-80.585938 45.34375-138.621094s-26.210938-109.082031-45.34375-138.621094c-6.421875-.902344-12.984375-1.378906-19.65625-1.378906s-13.234375.476562-19.65625 1.378906zm0 0" fill="#a0b9d8"/><path d="m275.65625 117.378906c-6.421875-.902344-12.984375-1.378906-19.65625-1.378906v280c6.671875 0 13.234375-.476562 19.65625-1.378906 19.132812-29.539063 45.34375-80.585938 45.34375-138.621094s-26.210938-109.082031-45.34375-138.621094zm0 0" fill="#c0dafb"/><path d="m106 221h300v70h-300zm0 0" fill="#808aff"/><path d="m256 221h150v70h-150zm0 0" fill="#666ecc"/><g fill="#fff"><path d="m187.132812 274.492188h23.238282v7.101562h-32.132813v-51.1875h8.894531zm0 0"/><path d="m231.976562 281.59375h-8.859374v-51.1875h8.859374zm0 0"/><path d="m266.347656 270.449219 13.007813-40.042969h9.773437l-18.425781 51.1875h-8.609375l-18.355469-51.1875h9.738281zm0 0"/><path d="m330.210938 258.742188h-21.023438v15.75h24.574219v7.101562h-33.46875v-51.1875h33.222656v7.171875h-24.328125v14.132813h21.023438zm0 0"/></g><path d="m330.210938 258.742188h-21.023438v15.75h24.574219v7.101562h-33.46875v-51.1875h33.222656v7.171875h-24.328125v14.132813h21.023438zm0 0" fill="#ebebeb"/><path d="m279.355469 230.40625-13.007813 40.042969-10.347656-32.199219v26.351562l6.09375 16.992188h8.613281l18.421875-51.1875zm0 0" fill="#ebebeb"/></svg>