<svg height="512pt" viewBox="0 0 512 512.00015" width="512pt" xmlns="http://www.w3.org/2000/svg"><path d="m512 256.269531c0 .320313 0 .640625-.011719.960938 0 1.308593-.019531 2.621093-.046875 3.917969-.042968 1.882812-.089844 3.761718-.179687 5.632812-.050781 1.320312-.113281 2.628906-.191407 3.9375-.011718.28125-.019531.550781-.039062.832031-.132812 2.167969-.292969 4.328125-.480469 6.488281-9.171875 107.632813-84.941406 196.261719-185.910156 224.511719-3.359375.9375-6.75 1.808594-10.171875 2.621094-4.839844 1.136719-9.738281 2.148437-14.679688 3.007813-10.148437 1.769531-20.507812 2.949218-31.039062 3.46875-.621094.042968-1.238281.070312-1.859375.101562-.332031.011719-.671875.03125-1 .039062-.460937.019532-.929687.042969-1.390625.050782-2.089844.082031-4.191406.128906-6.289062.148437-1 .011719-1.992188.011719-2.980469.011719-12.550781-.011719-24.898438-.929688-36.960938-2.699219-4.308593-.621093-8.578125-1.351562-12.808593-2.191406-.230469-.050781-.472657-.089844-.699219-.140625-12.929688-2.597656-25.492188-6.167969-37.621094-10.628906-3.519531-1.300782-7-2.667969-10.449219-4.121094-92.421875-38.6875-157.300781-130.039062-157.191406-236.488281.148438-141.378907 114.890625-255.878907 256.269531-255.730469 119.0625.128906 219.0625 81.511719 247.5625 191.640625.339844 1.328125.679688 2.660156 1 4 .699219 2.890625 1.347657 5.789063 1.949219 8.71875.390625 1.929687.769531 3.871094 1.109375 5.820313.121094.582031.21875 1.160156.320313 1.742187 1.140624 6.519531 2.019531 13.117187 2.648437 19.796875.421875 4.429688.722656 8.890625.910156 13.382812.160157 3.699219.230469 7.429688.230469 11.167969zm0 0" fill="#5c6b99"/><path d="m511.761719 266.78125c-.050781 1.320312-.113281 2.628906-.191407 3.9375-.011718.28125-.019531.550781-.039062.832031-.132812 2.167969-.292969 4.328125-.480469 6.488281-9.171875 107.632813-84.941406 196.261719-185.910156 224.511719-3.359375.9375-6.75 1.808594-10.171875 2.621094-4.839844 1.136719-9.738281 2.148437-14.679688 3.007813-10.148437 1.769531-20.507812 2.949218-31.039062 3.46875-.621094.042968-1.238281.070312-1.859375.101562-.332031.011719-.671875.03125-1 .039062-.460937.019532-.929687.042969-1.390625.050782l-109-108.828125 15-30 53.988281-106.25c-.066406-.070313-47.71875-47.722657-47.71875-47.722657l-6.269531-63.757812-15-14.5 200-30zm0 0" fill="#455373"/><path d="m341 116.261719h-170v88.242187c0 7.390625 4.078125 14.183594 10.605469 17.65625l63.613281 33.839844-63.613281 33.84375c-6.527344 3.46875-10.605469 10.261719-10.605469 17.65625v88.238281h170v-88.238281c0-7.394531-4.078125-14.1875-10.605469-17.660156l-63.609375-33.839844 63.609375-33.839844c6.527344-3.472656 10.605469-10.265625 10.605469-17.65625zm0 0" fill="#fff"/><path d="m341 116.261719h-85v279.476562h85v-88.238281c0-7.394531-4.078125-14.1875-10.605469-17.660156l-63.609375-33.839844 63.609375-33.839844c6.527344-3.472656 10.605469-10.265625 10.605469-17.65625zm0 0" fill="#ebebeb"/><path d="m266.785156 256 51-27.132812h-123.570312l51.003906 27.132812-63.613281 33.84375c-6.527344 3.46875-10.605469 10.261719-10.605469 17.65625v88.238281h170v-88.238281c0-7.394531-4.078125-14.1875-10.605469-17.660156zm0 0" fill="#ffdf4c"/><path d="m156 110.777344h200v30h-200zm0 0" fill="#ff6680"/><path d="m156 373.011719h200v30h-200zm0 0" fill="#ff6680"/><path d="m266.785156 256 51-27.132812h-61.785156v166.867187h85v-88.238281c0-7.394532-4.078125-14.183594-10.605469-17.65625zm0 0" fill="#d4b93f"/><g fill="#d14960"><path d="m256 373.011719h100v30h-100zm0 0"/><path d="m256 110.777344h100v30h-100zm0 0"/></g></svg>