<svg height="512pt" viewBox="0 0 512 512" width="512pt" xmlns="http://www.w3.org/2000/svg"><path d="m512 256v.640625c-.011719 4.167969-.121094 8.308594-.328125 12.417969-.011719.28125-.023437.5625-.042969.839844-.398437 7.429687-1.109375 14.773437-2.128906 22.011718-16.78125 119.539063-116.121094 212.589844-238.511719 219.648438-4.957031.292968-9.957031.441406-14.988281.441406-2.378906 0-4.738281-.03125-7.101562-.101562-2.476563-.070313-4.9375-.167969-7.398438-.308594-1.210938-.058594-2.421875-.140625-3.628906-.21875-6.382813-.449219-12.691406-1.132813-18.929688-2.042969-1.832031-.269531-3.660156-.546875-5.472656-.859375-.019531 0-.027344-.007812-.046875-.007812-.03125-.011719-.0625-.011719-.09375-.011719-1.089844-.1875-2.179687-.378907-3.257813-.578125-1.730468-.3125-3.449218-.640625-5.171874-.992188-116.898438-23.667968-204.898438-127-204.898438-250.878906 0-141.378906 114.621094-256 256-256 116.921875 0 215.53125 78.378906 246.160156 185.46875 2.480469 8.660156 4.511719 17.5 6.070313 26.511719 1.007812 5.859375 1.828125 11.789062 2.441406 17.78125.027344.339843.066406.667969.097656 1.007812.402344 4.058594.699219 8.160157.910157 12.28125.210937 4.289063.320312 8.609375.320312 12.949219zm0 0" fill="#5c6b99"/><path d="m512 256.640625c-.011719 4.167969-.121094 8.308594-.328125 12.417969-.011719.28125-.023437.5625-.042969.839844-.398437 7.429687-1.109375 14.773437-2.128906 22.011718-16.78125 119.539063-116.121094 212.589844-238.511719 219.648438-4.957031.292968-9.957031.441406-14.988281.441406-2.378906 0-4.738281-.03125-7.101562-.101562-2.476563-.070313-4.9375-.167969-7.398438-.308594l-110.5-110.230469 235-290.71875zm0 0" fill="#455373"/><path d="m131 251.359375h250v150h-250zm0 0" fill="#d4b93f"/><path d="m256 251.359375h125v150h-125zm0 0" fill="#cc9202"/><path d="m146 110.640625h220v260h-220zm0 0" fill="#fff"/><path d="m256 110.640625h110v260h-110zm0 0" fill="#ebebeb"/><path d="m181 242.640625h150v25h-150zm0 0" fill="#c0dafb"/><path d="m181 197.640625h150v25h-150zm0 0" fill="#c0dafb"/><path d="m256 242.640625h75v25h-75zm0 0" fill="#a0b9d8"/><path d="m256 197.640625h75v25h-75zm0 0" fill="#a0b9d8"/><path d="m256 326.359375-125-75v150h250v-150zm0 0" fill="#ffdf4c"/><path d="m256 326.359375v75h125v-150zm0 0" fill="#d4b93f"/><g fill="#ff6680"><path d="m211.085938 176.328125h-7.617188l-14.828125-24.324219v24.324219h-7.617187v-36.96875h7.617187l14.855469 24.375v-24.375h7.589844zm0 0"/><path d="m243.882812 160.304688h-14.625v9.902343h17.164063v6.117188h-24.78125v-36.96875h24.726563v6.171875h-17.109376v8.8125h14.625zm0 0"/><path d="m283.582031 165.664062 4.976563-26.304687h7.59375l-8.203125 36.96875h-7.667969l-6.015625-24.730469-6.019531 24.730469h-7.667969l-8.199219-36.96875h7.589844l5.003906 26.253906 6.09375-26.253906h6.449219zm0 0"/></g><path d="m323.332031 166.628906c0-1.441406-.507812-2.542968-1.523437-3.316406-1.011719-.769531-2.84375-1.582031-5.484375-2.4375-2.636719-.855469-4.730469-1.695312-6.269531-2.523438-4.199219-2.269531-6.296876-5.324218-6.296876-9.167968 0-1.996094.5625-3.777344 1.6875-5.34375s2.742188-2.789063 4.851563-3.667969c2.105469-.882813 4.472656-1.320313 7.097656-1.320313 2.640625 0 4.992188.476563 7.058594 1.433594 2.0625.957032 3.667969 2.308594 4.8125 4.050782 1.140625 1.742187 1.710937 3.722656 1.710937 5.941406h-7.617187c0-1.691406-.53125-3.011719-1.597656-3.949219-1.066407-.9375-2.566407-1.410156-4.496094-1.410156-1.859375 0-3.308594.394531-4.339844 1.183593-1.035156.785157-1.550781 1.824219-1.550781 3.109376 0 1.199218.605469 2.207031 1.816406 3.019531 1.210938.8125 2.992188 1.574219 5.34375 2.285156 4.332032 1.304687 7.492188 2.921875 9.472656 4.851563 1.980469 1.929687 2.96875 4.332031 2.96875 7.210937 0 3.199219-1.207031 5.707031-3.628906 7.527344-2.421875 1.820312-5.679687 2.730469-9.777344 2.730469-2.84375 0-5.433593-.523438-7.769531-1.5625-2.335937-1.042969-4.117187-2.46875-5.34375-4.28125-1.226562-1.808594-1.839843-3.90625-1.839843-6.296876h7.640624c0 4.082032 2.4375 6.121094 7.3125 6.121094 1.8125 0 3.226563-.367187 4.242188-1.105468 1.015625-.734376 1.519531-1.761719 1.519531-3.082032zm0 0" fill="#d14960"/><path d="m288.558594 139.359375-4.976563 26.304687-6.070312-26.304687h-6.449219l-6.09375 26.253906-5-26.253906h-3.96875v16.332031l4.578125 20.636719h7.667969l6.015625-24.730469 6.019531 24.730469h7.667969l8.199219-36.96875zm0 0" fill="#d14960"/></svg>