<svg height="512pt" viewBox="0 0 512 512.00015" width="512pt" xmlns="http://www.w3.org/2000/svg"><path d="m512 255.5v1c0 .238281 0 .488281-.011719.730469 0 1.308593-.019531 2.621093-.046875 3.917969-.070312 3.480468-.203125 6.953124-.410156 10.402343-.300781 5.089844-.761719 10.140625-1.359375 15.140625-.5625 4.707032-1.25 9.367188-2.0625 14-1.148437 6.507813-2.539063 12.9375-4.179687 19.269532-.628907 2.5-1.308594 4.980468-2.03125 7.449218-3.617188 12.511719-8.179688 24.628906-13.589844 36.269532-27.457032 59.152343-76.839844 106.050781-137.699219 130.269531-.320313.132812-.628906.25-.949219.371093-11.199218 4.410157-22.789062 8.050782-34.691406 10.851563-.128906.027344-.257812.058594-.386719.089844-2.863281.667969-5.75 1.289062-8.660156 1.859375-1.871094.378906-3.75.730468-5.632813 1.058594-6.839843 1.191406-13.769531 2.121093-20.789062 2.75-3.398438.308593-6.808594.550781-10.25.71875-.621094.042968-1.238281.070312-1.859375.101562-.332031.011719-.671875.03125-1 .039062-3.441406.152344-6.910156.210938-10.390625.210938h-.269531c-2.921875 0-5.832031-.050781-8.730469-.160156-9.558594-.320313-18.980469-1.179688-28.230469-2.539063-4.308593-.621093-8.578125-1.351562-12.808593-2.191406-.230469-.050781-.472657-.089844-.699219-.140625-12.929688-2.597656-25.492188-6.167969-37.621094-10.628906-3.519531-1.300782-7-2.667969-10.449219-4.121094-92.421875-38.6875-157.300781-130.039062-157.191406-236.488281.148438-141.378907 114.890625-255.878907 256.269531-255.730469 119.0625.128906 219.0625 81.511719 247.5625 191.640625.339844 1.328125.679688 2.660156 1 4 .699219 2.890625 1.347657 5.789063 1.949219 8.71875.390625 1.929687.769531 3.871094 1.109375 5.820313.121094.582031.21875 1.160156.320313 1.742187 1.140624 6.519531 2.019531 13.117187 2.648437 19.796875.421875 4.429688.722656 8.890625.910156 13.382812.03125.628907.050781 1.269532.070313 1.898438.101562 2.820312.148437 5.660156.160156 8.5zm0 0" fill="#45e595"/><path d="m512 255.5v1c0 .238281 0 .488281-.011719.730469 0 1.308593-.019531 2.621093-.046875 3.917969-.070312 3.480468-.203125 6.953124-.410156 10.402343-.300781 5.089844-.761719 10.140625-1.359375 15.140625-.5625 4.707032-1.25 9.367188-2.0625 14-1.148437 6.507813-2.539063 12.9375-4.179687 19.269532-.628907 2.5-1.308594 4.980468-2.03125 7.449218-3.617188 12.511719-8.179688 24.628906-13.589844 36.269532-27.457032 59.152343-76.839844 106.050781-137.699219 130.269531-.320313.132812-.628906.25-.949219.371093-11.199218 4.410157-22.789062 8.050782-34.691406 10.851563-.128906.027344-.257812.058594-.386719.089844-2.863281.667969-5.75 1.289062-8.660156 1.859375-1.871094.378906-3.75.730468-5.632813 1.058594-6.839843 1.191406-13.769531 2.121093-20.789062 2.75-3.398438.308593-6.808594.550781-10.25.71875-.621094.042968-1.238281.070312-1.859375.101562-.332031.011719-.671875.03125-1 .039062-3.441406.152344-6.910156.210938-10.390625.210938l-100-99.5v-313h200zm0 0" fill="#39bf7c"/><path d="m340.757812 162.25h45v30h-45zm0 0" fill="#d14960"/><path d="m340.757812 212.25h45v30h-45zm0 0" fill="#d4b93f"/><path d="m156 99.5h200v313h-200zm0 0" fill="#5c6b99"/><path d="m186 137.363281h140v105h-140zm0 0" fill="#fff"/><path d="m256 137.363281h70v105h-70zm0 0" fill="#ebebeb"/><path d="m311.117188 189.863281c0-12.429687-10.074219-22.5-22.5-22.5-12.425782 0-22.5 10.070313-22.5 22.5 0 .425781.015624.851563.035156 1.273438h-20.304688c.023438-.421875.035156-.847657.035156-1.273438 0-12.429687-10.074218-22.5-22.5-22.5-12.425781 0-22.5 10.070313-22.5 22.5 0 .425781.015626.851563.039063 1.273438h-.039063c0 11.722656 9.503907 21.226562 21.226563 21.226562h67.78125c11.722656 0 21.222656-9.503906 21.222656-21.226562h-.035156c.023437-.421875.039063-.847657.039063-1.273438zm0 0" fill="#808aff"/><path d="m311.117188 189.863281c0-12.429687-10.074219-22.5-22.5-22.5-12.425782 0-22.5 10.070313-22.5 22.5 0 .425781.015624.851563.035156 1.273438h-10.152344v21.226562h33.890625c11.722656 0 21.222656-9.503906 21.222656-21.226562h-.035156c.023437-.421875.039063-.847657.039063-1.273438zm0 0" fill="#666ecc"/><path d="m296 327.429688c0 22.089843-17.910156 40-40 40s-40-17.910157-40-40c0-22.09375 17.910156-40 40-40s40 17.90625 40 40zm0 0" fill="#fff"/><path d="m256 287.429688v80c22.089844 0 40-17.910157 40-40 0-22.09375-17.90625-40-40-40zm0 0" fill="#ebebeb"/><path d="m256 382.429688c-30.328125 0-55-24.671876-55-55 0-30.328126 24.671875-55 55-55s55 24.671874 55 55c0 30.328124-24.671875 55-55 55zm0-80c-13.785156 0-25 11.214843-25 25 0 13.785156 11.214844 25 25 25s25-11.214844 25-25c0-13.785157-11.214844-25-25-25zm0 0" fill="#ff6680"/><path d="m256 272.429688v30c13.785156 0 25 11.214843 25 25 0 13.785156-11.214844 25-25 25v30c30.328125 0 55-24.671876 55-55 0-30.328126-24.671875-55-55-55zm0 0" fill="#d14960"/></svg>