<svg height="512pt" viewBox="0 0 512 512.00015" width="512pt" xmlns="http://www.w3.org/2000/svg"><path d="m512 256.269531c0 5.089844-.160156 10.199219-.46875 15.28125-.5625 9.417969-1.640625 18.699219-3.191406 27.820313-.109375.628906-.21875 1.257812-.328125 1.878906-1.0625 5.960938-2.332031 11.851562-3.8125 17.648438-23.480469 92.992187-97.839844 165.703124-191.699219 186.839843-15.148438 3.421875-30.808594 5.492188-46.839844 6.070313-3.289062.132812-6.601562.191406-9.929687.191406-3.339844 0-6.691407-.070312-10.03125-.210938-1.539063-.050781-3.070313-.128906-4.609375-.21875-8.441406-.480468-16.859375-1.378906-25.210938-2.710937-12.777344-2.019531-25.398437-4.980469-37.730468-8.910156-7.089844-2.269531-14.089844-4.839844-20.957032-7.730469-92.421875-38.6875-157.300781-130.039062-157.191406-236.488281.148438-141.378907 114.890625-255.878907 256.269531-255.730469 126.121094.128906 230.851563 91.449219 251.871094 211.53125 1.140625 7.417969 2.269531 14.839844 2.910156 22.320312.347657 4.089844.609375 8.1875.757813 12.289063.132812 3.378906.191406 6.75.191406 10.128906zm0 0" fill="#ff6680"/><path d="m504.199219 318.898438c-23.480469 92.992187-97.839844 165.703124-191.699219 186.839843-15.148438 3.421875-30.808594 5.492188-46.839844 6.070313-3.289062.132812-6.601562.191406-9.929687.191406-3.339844 0-6.691407-.070312-10.03125-.210938l-117-117.1875h-.488281l-1.800782-117.792968-10.410156-10 75-40 41.109375-69.726563-2.96875-2.980469 54.589844-55.679687s192.699219 192.699219 220.46875 220.476563zm0 0" fill="#d14960"/><path d="m321 230.519531h-130v-13c0-35.894531 29.101562-65 65-65s65 29.101563 65 65zm0 0" fill="#45e595"/><path d="m256 152.519531v78h65v-13c0-35.898437-29.101562-65-65-65zm0 0" fill="#39bf7c"/><path d="m295 125.835938c0 21.539062-17.460938 39-39 39s-39-17.460938-39-39c0-21.539063 17.460938-39 39-39s39 17.460937 39 39zm0 0" fill="#ffbfab"/><path d="m256 86.835938v78c21.539062 0 39-17.460938 39-39 0-21.539063-17.460938-39-39-39zm0 0" fill="#ffa78f"/><path d="m383.792969 394.601562h-255.582031l-2.210938-145h260zm0 0" fill="#5c6b99"/><path d="m256 249.601562v145h127.792969l2.207031-145zm0 0" fill="#455373"/><path d="m116 226.804688h280v40h-280zm0 0" fill="#ffdf4c"/><path d="m256 226.804688h140v40h-140zm0 0" fill="#d4b93f"/><g fill="#fff"><path d="m199.210938 356.296875h-10.546876l-20.53125-33.679687v33.679687h-10.546874v-51.1875h10.546874l20.566407 33.75v-33.75h10.511719zm0 0"/><path d="m241.019531 334.113281h-20.25v13.710938h23.765625v8.472656h-34.3125v-51.1875h34.242188v8.542969h-23.695313v12.199218h20.25zm0 0"/><path d="m292.390625 341.53125 6.890625-36.421875h10.511719l-11.355469 51.1875h-10.617188l-8.332031-34.242187-8.332031 34.242187h-10.617188l-11.355468-51.1875h10.511718l6.929688 36.351563 8.4375-36.351563h8.929688zm0 0"/></g><path d="m343.832031 342.867188c0-1.992188-.703125-3.519532-2.109375-4.585938s-3.9375-2.191406-7.59375-3.375-6.550781-2.351562-8.683594-3.5c-5.8125-3.140625-8.71875-7.371094-8.71875-12.691406 0-2.765625.777344-5.230469 2.335938-7.398438 1.558594-2.167968 3.796875-3.859375 6.714844-5.082031 2.917968-1.21875 6.195312-1.828125 9.828125-1.828125 3.65625 0 6.914062.664062 9.773437 1.988281 2.855469 1.324219 5.078125 3.191407 6.660156 5.605469 1.582032 2.414062 2.375 5.15625 2.375 8.226562h-10.550781c0-2.34375-.734375-4.164062-2.214843-5.464843-1.476563-1.300781-3.550782-1.953125-6.222657-1.953125-2.578125 0-4.582031.546875-6.011719 1.636718-1.429687 1.089844-2.144531 2.523438-2.144531 4.308594 0 1.664063.839844 3.058594 2.515625 4.183594 1.675782 1.125 4.140625 2.179688 7.398438 3.164062 6 1.804688 10.371094 4.042969 13.113281 6.714844s4.113281 6 4.113281 9.984375c0 4.429688-1.675781 7.902344-5.027344 10.421875-3.351562 2.519532-7.863281 3.78125-13.535156 3.78125-3.9375 0-7.523437-.722656-10.757812-2.164062s-5.699219-3.414063-7.398438-5.921875c-1.699218-2.511719-2.550781-5.414063-2.550781-8.722657h10.582031c0 5.648438 3.375 8.476563 10.125 8.476563 2.507813 0 4.464844-.511719 5.871094-1.53125s2.113281-2.445313 2.113281-4.273437zm0 0" fill="#ebebeb"/><path d="m299.28125 305.109375-6.890625 36.421875-8.402344-36.421875h-8.929687l-8.4375 36.351563-6.925782-36.351563h-3.695312v30.730469l4.539062 20.457031h10.617188l8.332031-34.242187 8.332031 34.242187h10.617188l11.355469-51.1875zm0 0" fill="#ebebeb"/></svg>