<svg height="512pt" viewBox="0 0 512 512" width="512pt" xmlns="http://www.w3.org/2000/svg"><path d="m512 256c0 8.269531-.390625 16.449219-1.160156 24.511719-10.839844 114.089843-96.558594 206.359375-207.46875 227.109375-15.351563 2.878906-31.179688 4.378906-47.371094 4.378906h-.5c-2.210938 0-4.410156-.03125-6.601562-.101562-3.699219-.097657-7.378907-.277344-11.039063-.539063-.53125-.03125-1.070313-.070313-1.597656-.109375-.089844-.011719-.171875-.019531-.261719-.019531h-.03125c-5.730469-.449219-11.410156-1.082031-17.027344-1.902344-1.851562-.269531-3.691406-.558594-5.519531-.867187-1.121094-.191407-2.242187-.382813-3.351563-.589844-1.730468-.3125-3.449218-.640625-5.171874-.992188-116.898438-23.667968-204.898438-127-204.898438-250.878906 0-141.378906 114.621094-256 256-256 116.921875 0 215.53125 78.378906 246.160156 185.46875 2.480469 8.660156 4.511719 17.5 6.070313 26.511719.289062 1.660156.550781 3.320312.808593 5 0 .019531.011719.050781.011719.070312.640625 4.199219 1.1875 8.4375 1.621094 12.710938.027344.339843.066406.667969.097656 1.007812.230469 2.351563.429688 4.71875.589844 7.089844.101563 1.460937.191406 2.929687.269531 4.402344.101563 1.878906.179688 3.769531.242188 5.660156.089844 2.6875.128906 5.378906.128906 8.078125zm0 0" fill="#ffdf4c"/><path d="m512 256c0 8.269531-.390625 16.449219-1.160156 24.511719-10.839844 114.089843-96.558594 206.359375-207.46875 227.109375-15.351563 2.878906-31.179688 4.378906-47.371094 4.378906h-.5l-166-165.601562 315-212.136719 107.128906 108c.101563 1.878906.179688 3.769531.242188 5.660156.089844 2.6875.128906 5.378906.128906 8.078125zm0 0" fill="#d4b93f"/><path d="m210.652344 134.257812h193.847656v133.269532h-38.996094l-7.601562 13.167968-10.492188 18.171876-10.492187-18.171876-7.601563-13.167968h-118.664062zm0 0" fill="#666ecc"/><path d="m210.652344 134.257812h96.925781v133.269532h-96.925781zm0 0" fill="#808aff"/><path d="m283.347656 213.132812h-193.847656v133.269532h38.996094l7.601562 13.167968 10.492188 18.171876 10.492187-18.171876 7.601563-13.167968h118.664062zm0 0" fill="#ff6680"/><path d="m186.421875 213.132812h96.925781v133.269532h-96.925781zm0 0" fill="#d14960"/><path d="m204.597656 279.769531c0 10.035157-8.136718 18.171875-18.175781 18.171875-10.035156 0-18.171875-8.136718-18.171875-18.171875 0-10.039062 8.136719-18.175781 18.171875-18.175781 10.039063 0 18.175781 8.136719 18.175781 18.175781zm0 0" fill="#fff"/><path d="m186.421875 261.59375v36.347656c10.039063 0 18.175781-8.136718 18.175781-18.175781 0-10.035156-8.136718-18.171875-18.175781-18.171875zm0 0" fill="#ebebeb"/><path d="m260.328125 279.769531c0 10.035157-8.136719 18.171875-18.175781 18.171875-10.035156 0-18.171875-8.136718-18.171875-18.171875 0-10.039062 8.136719-18.175781 18.171875-18.175781 10.039062 0 18.175781 8.136719 18.175781 18.175781zm0 0" fill="#fff"/><path d="m148.863281 279.769531c0 10.035157-8.132812 18.171875-18.171875 18.171875-10.035156 0-18.171875-8.136718-18.171875-18.171875 0-10.039062 8.136719-18.175781 18.171875-18.175781 10.039063 0 18.171875 8.136719 18.171875 18.175781zm0 0" fill="#fff"/><path d="m300.003906 217.808594c0-5.523438.671875-9.925782 2.011719-13.203125 1.339844-3.277344 3.796875-6.503907 7.363281-9.683594 3.570313-3.175781 5.945313-5.761719 7.128906-7.757813 1.183594-1.996093 1.773438-4.097656 1.773438-6.3125 0-6.671874-3.074219-10.011718-9.226562-10.011718-2.917969 0-5.257813.898437-7.011719 2.695312-1.753907 1.800782-2.671875 4.28125-2.75 7.445313h-17.15625c.078125-7.542969 2.515625-13.445313 7.304687-17.707031 4.792969-4.261719 11.332032-6.394532 19.613282-6.394532 8.359374 0 14.847656 2.023438 19.460937 6.070313 4.617187 4.046875 6.921875 9.761719 6.921875 17.144531 0 3.351562-.75 6.523438-2.246094 9.5-1.5 2.980469-4.121094 6.289062-7.871094 9.917969l-4.789062 4.5625c-3 2.878906-4.714844 6.253906-5.148438 10.125l-.238281 3.609375zm-1.714844 18.132812c0-2.632812.894532-4.804687 2.691407-6.515625 1.792969-1.710937 4.089843-2.566406 6.890625-2.566406 2.800781 0 5.097656.855469 6.894531 2.566406 1.792969 1.710938 2.691406 3.882813 2.691406 6.515625 0 2.59375-.878906 4.738282-2.632812 6.425782-1.757813 1.691406-4.074219 2.535156-6.953125 2.535156s-5.195313-.84375-6.949219-2.535156c-1.757813-1.6875-2.632813-3.832032-2.632813-6.425782zm0 0" fill="#c0dafb"/><g fill="#a0b9d8"><path d="m328.515625 162.949219c-4.613281-4.046875-11.101563-6.070313-19.460937-6.070313-.507813 0-.984376.03125-1.480469.046875v14.007813c.480469-.054688.964843-.09375 1.480469-.09375 6.152343 0 9.226562 3.339844 9.226562 10.015625 0 2.210937-.589844 4.316406-1.773438 6.308593-1.183593 1.996094-3.558593 4.582032-7.128906 7.761719-.640625.570313-1.234375 1.128907-1.800781 1.703125v21.183594h7.570313l.238281-3.613281c.433593-3.871094 2.148437-7.242188 5.144531-10.125l4.792969-4.558594c3.746093-3.632813 6.367187-6.941406 7.867187-9.917969 1.5-2.980468 2.25-6.152344 2.25-9.503906-.003906-7.382812-2.308594-13.097656-6.925781-17.144531zm0 0"/><path d="m307.871094 226.859375c-.097656 0-.195313.003906-.292969.003906v18.039063h.292969c2.878906 0 5.195312-.84375 6.953125-2.535156 1.753906-1.6875 2.632812-3.832032 2.632812-6.425782 0-2.632812-.898437-4.804687-2.691406-6.515625-1.796875-1.707031-4.09375-2.566406-6.894531-2.566406zm0 0"/></g></svg>