<svg height="511pt" viewBox="1 1 511.99997 511" width="511pt" xmlns="http://www.w3.org/2000/svg"><path d="m512 256.769531c0 5.089844-.160156 10.199219-.472656 15.28125-7.339844 122.46875-100.757813 221.707031-220.527344 238.078125-11.53125 1.570313-23.300781 2.378906-35.269531 2.371094-4.710938-.011719-9.421875-.140625-14.121094-.390625-1.039063-.058594-2.070313-.121094-3.109375-.199219-.171875-.011718-.339844-.019531-.5-.03125-3.351562-.230468-6.691406-.53125-10.03125-.898437-4.050781-.441407-8.078125-.992188-12.097656-1.621094-12.769532-2.019531-25.390625-4.980469-37.722656-8.910156-7.097657-2.269531-14.097657-4.839844-20.957032-7.730469-92.421875-38.691406-157.300781-130.039062-157.191406-236.488281.148438-141.382813 114.890625-255.882813 256.269531-255.730469 126.121094.128906 230.851563 91.449219 251.871094 211.53125 1.136719 7.417969 2.269531 14.839844 2.910156 22.320312.136719 1.628907.257813 3.25.367188 4.878907.011719.160156.019531.328125.03125.488281.050781.789062.101562 1.582031.140625 2.371094.058594 1.109375.121094 2.21875.167968 3.328125.171876 3.78125.25 7.5625.242188 11.351562zm0 0" fill="#45e595"/><path d="m512 256.769531c0 5.089844-.160156 10.199219-.472656 15.28125-7.339844 122.46875-100.757813 221.707031-220.527344 238.078125v-.089844l-100-99v-1.46875l-75-74 280-212.339843 115.417969 116c.011719.160156.019531.328125.03125.488281.050781.789062.101562 1.582031.140625 2.371094.058594 1.109375.121094 2.21875.167968 3.328125.171876 3.78125.25 7.5625.242188 11.351562zm0 0" fill="#39bf7c"/><path d="m226 318.503906h60v75.871094h-60zm0 0" fill="#5c6b99"/><path d="m256 318.503906h30v75.871094h-30zm0 0" fill="#455373"/><path d="m191 376.039062h130v35h-130zm0 0" fill="#808aff"/><path d="m256 376.039062h65v35h-65zm0 0" fill="#666ecc"/><path d="m131 138.226562h250v182.34375h-250zm0 0" fill="#fff"/><path d="m256 138.226562h125v182.34375h-125zm0 0" fill="#ebebeb"/><path d="m396 335.570312h-280v-212.34375h280zm-250-30h220v-152.34375h-220zm0 0" fill="#808aff"/><path d="m256 123.226562v30h110v152.34375h-110v30h140v-212.34375zm0 0" fill="#666ecc"/><path d="m176 184.398438h160v90h-160zm0 0" fill="#ff6680"/><path d="m256 184.398438h80v90h-80zm0 0" fill="#d14960"/><path d="m239.488281 255.027344v-50l39.023438 25zm0 0" fill="#fff"/><path d="m256 215.601562v28.847657l22.511719-14.421875zm0 0" fill="#ebebeb"/></svg>