<svg height="512pt" viewBox="0 0 512 512.00015" width="512pt" xmlns="http://www.w3.org/2000/svg"><path d="m512 256.269531c0 .320313 0 .640625-.011719.960938 0 1.308593-.019531 2.621093-.046875 3.917969-.011718.480468-.019531.960937-.03125 1.441406-.078125 3-.199218 5.992187-.378906 8.960937-.011719.089844-.011719.167969-.019531.257813-.261719 4.390625-.640625 8.75-1.132813 13.082031-.589844 5.320313-1.347656 10.589844-2.269531 15.800781-1.871094 10.609375-4.390625 20.988282-7.527344 31.097656-22.910156 74.0625-78.542969 133.730469-149.972656 162.160157-11.5 4.570312-23.398437 8.339843-35.640625 11.222656-4.839844 1.136719-9.738281 2.148437-14.679688 3.007813-1.757812.308593-3.527343.601562-5.308593.871093-8.441407 1.289063-17.03125 2.167969-25.730469 2.597657-.621094.042968-1.238281.070312-1.859375.101562-.332031.011719-.671875.03125-1 .039062-3.460937.152344-6.949219.210938-10.449219.210938h-.210937c-1.371094 0-2.742188-.011719-4.109375-.03125-4.972656-.078125-9.902344-.308594-14.789063-.679688-6.082031-.449218-12.113281-1.109374-18.0625-1.988281-2.050781-.289062-4.089843-.609375-6.109375-.960937-2.25-.378906-4.480468-.789063-6.699218-1.230469-.230469-.050781-.472657-.089844-.699219-.140625-12.929688-2.597656-25.492188-6.167969-37.621094-10.628906-3.519531-1.300782-7-2.667969-10.449219-4.121094-92.421875-38.6875-157.300781-130.039062-157.191406-236.488281.148438-141.378907 114.890625-255.878907 256.269531-255.730469 119.0625.128906 219.0625 81.511719 247.5625 191.640625.339844 1.328125.679688 2.660156 1 4 .699219 2.890625 1.347657 5.789063 1.949219 8.71875.390625 1.929687.769531 3.871094 1.109375 5.820313.121094.582031.21875 1.160156.320313 1.742187 1.140624 6.519531 2.019531 13.117187 2.648437 19.796875.3125 3.25.550781 6.519531.742187 9.8125.058594 1.1875.117188 2.378906.167969 3.570312.160157 3.699219.230469 7.429688.230469 11.167969zm0 0" fill="#ff6680"/><path d="m510.378906 284.890625c-.589844 5.320313-1.347656 10.589844-2.269531 15.800781-1.871094 10.609375-4.390625 20.988282-7.527344 31.097656-22.910156 74.0625-78.542969 133.730469-149.972656 162.160157-11.5 4.570312-23.398437 8.339843-35.640625 11.222656-4.839844 1.136719-9.738281 2.148437-14.679688 3.007813-1.757812.308593-3.527343.601562-5.308593.871093-8.441407 1.289063-17.03125 2.167969-25.730469 2.597657-.621094.042968-1.238281.070312-1.859375.101562-.332031.011719-.671875.03125-1 .039062-3.460937.152344-6.949219.210938-10.449219.210938l-151-150.769531 209.078125-270.191407 90.359375 90.351563h2.679688zm0 0" fill="#d14960"/><path d="m149.941406 336.550781h40v50h-40zm0 0" fill="#455373"/><path d="m289.941406 336.550781h40v50h-40zm0 0" fill="#313b51"/><path d="m168.234375 129.46875 21.210937-21.210938 56.570313 56.566407-21.214844 21.214843zm0 0" fill="#5c6b99"/><path d="m259.449219 188.039062-21.210938-21.210937 75.785157-75.785156 21.210937 21.210937zm0 0" fill="#455373"/><path d="m279.941406 186.039062c0 22.089844-17.90625 40-40 40-22.089844 0-40-17.910156-40-40 0-22.09375 17.910156-40 40-40 22.09375 0 40 17.90625 40 40zm0 0" fill="#ffdf4c"/><path d="m239.941406 146.039062v80c22.09375 0 40-17.910156 40-40 0-22.09375-17.90625-40-40-40zm0 0" fill="#d4b93f"/><path d="m119.941406 196.226562h240v150h-240zm0 0" fill="#fff"/><path d="m374.941406 361.226562h-270v-180h270zm-240-30h210v-120h-210zm0 0" fill="#5c6b99"/><path d="m407.058594 181.394531h-32.117188v-.167969h-135v30h105v120h-105v30h135v-.167968h32.117188zm0 0" fill="#455373"/><path d="m391 226.394531c0 8.28125-6.714844 15-15 15s-15-6.71875-15-15c0-8.285156 6.714844-15 15-15s15 6.714844 15 15zm0 0" fill="#d14960"/><path d="m391 270.570312c0 8.28125-6.714844 15-15 15s-15-6.71875-15-15c0-8.285156 6.714844-15 15-15s15 6.714844 15 15zm0 0" fill="#d4b93f"/><path d="m391 316.058594c0 8.285156-6.714844 15-15 15s-15-6.714844-15-15c0-8.28125 6.714844-15 15-15s15 6.71875 15 15zm0 0" fill="#39bf7c"/><path d="m248.085938 286.769531 2.519531-58.300781h-21.035157l2.519532 58.300781zm0 0" fill="#ff6680"/><path d="m250.605469 228.46875h-10.664063v58.300781h8.144532zm0 0" fill="#d14960"/><path d="m251.089844 305.027344c0 6.078125-4.925782 11-11 11-6.074219 0-11-4.921875-11-11 0-6.074219 4.925781-11 11-11 6.074218 0 11 4.925781 11 11zm0 0" fill="#ff6680"/><path d="m240.089844 294.027344v22c6.074218 0 11-4.921875 11-11 0-6.074219-4.925782-11-11-11zm0 0" fill="#d14960"/></svg>