<svg height="512pt" viewBox="0 0 512 512" width="512pt" xmlns="http://www.w3.org/2000/svg"><path d="m512 256v.640625c-.011719 4.167969-.121094 8.308594-.328125 12.417969-.011719.28125-.023437.5625-.042969.839844-.398437 7.429687-1.109375 14.773437-2.128906 22.011718-2.449219 17.449219-6.660156 34.328125-12.429688 50.460938-33.839843 94.410156-121.550781 163.160156-226.082031 169.1875-1.589843.089844-3.1875.171875-4.796875.230468-3.382812.140626-6.78125.210938-10.191406.210938-2.378906 0-4.738281-.03125-7.101562-.101562-2.476563-.070313-4.9375-.167969-7.398438-.308594-1.210938-.058594-2.421875-.140625-3.628906-.21875-6.382813-.449219-12.691406-1.132813-18.929688-2.042969-1.832031-.269531-3.660156-.546875-5.472656-.859375-.019531 0-.027344-.007812-.046875-.007812-.03125-.011719-.0625-.011719-.09375-.011719-1.089844-.1875-2.179687-.378907-3.257813-.578125-1.730468-.3125-3.449218-.640625-5.171874-.992188-116.898438-23.667968-204.898438-127-204.898438-250.878906 0-141.378906 114.621094-256 256-256 116.921875 0 215.53125 78.378906 246.160156 185.46875 2.480469 8.660156 4.511719 17.5 6.070313 26.511719 1.007812 5.859375 1.828125 11.789062 2.441406 17.78125.027344.339843.066406.667969.097656 1.007812.402344 4.058594.699219 8.160157.910157 12.28125.210937 4.289063.320312 8.609375.320312 12.949219zm0 0" fill="#5c6b99"/><path d="m497.070312 342.371094c-33.839843 94.410156-121.550781 163.160156-226.082031 169.1875-1.589843.089844-3.1875.171875-4.796875.230468l-178.191406-178.148437 220-175 79 79.238281h4.949219l23.5 23.589844c1.832031 1.320312 3.539062 2.792969 5.109375 4.390625.171875.171875 76.339844 76.332031 76.5 76.5zm0 0" fill="#455373"/><path d="m88 158.640625h220v175h-220zm0 0" fill="#fff"/><path d="m198 158.640625h110v175h-110zm0 0" fill="#ebebeb"/><path d="m123 233.640625h150v25h-150zm0 0" fill="#c0dafb"/><path d="m123 188.640625h150v25h-150zm0 0" fill="#c0dafb"/><path d="m198 233.640625h75v25h-75zm0 0" fill="#a0b9d8"/><path d="m123 278.640625h150v25h-150zm0 0" fill="#c0dafb"/><path d="m198 278.640625h75v25h-75zm0 0" fill="#a0b9d8"/><path d="m198 188.640625h75v25h-75zm0 0" fill="#a0b9d8"/><path d="m392.050781 333.878906c-22.058593 0-40-17.945312-40-40 0-22.058594 17.941407-40 40-40 22.054688 0 40 17.941406 40 40 0 22.054688-17.945312 40-40 40zm0-50c-5.515625 0-10 4.484375-10 10 0 5.511719 4.484375 10 10 10 5.511719 0 10-4.488281 10-10 0-5.515625-4.488281-10-10-10zm0 0" fill="#c1330c"/><path d="m341.949219 367.878906h-80c-27.613281 0-50-22.386718-50-50v-80h180v80c0 27.613282-22.386719 50-50 50zm0 0" fill="#ff6680"/><path d="m301.949219 237.878906v130h40c27.613281 0 50-22.386718 50-50v-80zm0 0" fill="#d14960"/><path d="m216.949219 361.800781h170v30h-170zm0 0" fill="#d14960"/><path d="m301.949219 361.800781h85v30h-85zm0 0" fill="#c1330c"/></svg>