<svg height="512pt" viewBox="0 0 512.00029 512" width="512pt" xmlns="http://www.w3.org/2000/svg"><path d="m511.917969 262.5c-.058594 2.292969-.148438 4.589844-.269531 6.863281-.007813.128907-.007813.25-.019532.378907 0 .03125 0 .050781-.011718.078124-.136719 2.75-.328126 5.492188-.570313 8.210938-.179687 2.121094-.386719 4.230469-.617187 6.339844-.511719 4.628906-1.140626 9.230468-1.902344 13.789062-2.867188 17.339844-7.480469 34.082032-13.636719 50.03125-25.960937 67.277344-79.460937 120.609375-146.359375 146.558594-6.839844 2.667969-13.800781 5.019531-20.851562 7.078125-.097657.03125-.210938.0625-.308594.089844-12.429688 3.609375-25.121094 6.230469-37.941406 7.910156-4.039063.53125-8.078126.972656-12.140626 1.300781-1.4375.121094-2.886718.230469-4.339843.320313-2.199219.140625-4.398438.261719-6.597657.339843-3.320312.140626-6.628906.199219-9.949218.210938-2.300782 0-4.601563-.019531-6.902344-.082031-3.957031-.097657-7.886719-.289063-11.789062-.570313-6.03125-.429687-12-1.058594-17.898438-1.898437-.019531 0-.039062-.011719-.0625-.011719-121.96875-17.277344-215.4375-120.175781-219.597656-244.644531-.1796878-5.089844-.199219-10.203125-.0703128-15.292969.1406248-5.6875.4804688-11.367188.9999998-17.027344.160157-1.789062.351563-3.570312.550781-5.359375.832032-7.460937 2.160157-14.851562 3.492188-22.230469 24.1875-119.480468 131.296875-208 257.375-204.7968745 136.78125 3.4687505 245.777344 113.6289065 249.398438 248.8359375.050781 1.75.082031 3.511719.089843 5.269531.03125 2.761719 0 5.53125-.070312 8.308594zm0 0" fill="#ffdf4c"/><path d="m510.429688 284.371094c-.511719 4.628906-1.140626 9.230468-1.902344 13.789062-2.867188 17.339844-7.480469 34.082032-13.636719 50.03125-25.960937 67.277344-79.460937 120.609375-146.359375 146.558594-6.839844 2.667969-13.800781 5.019531-20.851562 7.078125l-71.679688-71.527344-97.429688-145.289062 186.308594-166.1875s165.371094 165.355469 165.550782 165.546875zm0 0" fill="#d4b93f"/><path d="m256 430.296875-108.21875-161.382813c-46.972656-82.207031 21.578125-178.523437 104.671875-178.523437 1.179687 0 2.363281-.042969 3.546875-.042969 1.1875 0 2.371094.042969 3.546875.042969 80.070313 0 151.648437 96.316406 104.671875 178.523437zm0 0" fill="#5c6b99"/><path d="m259.546875 90.390625c-1.175781 0-2.359375-.042969-3.546875-.042969v339.949219l108.21875-161.382813c46.976562-82.207031-24.601562-178.523437-104.671875-178.523437zm0 0" fill="#455373"/><path d="m256 314.703125c-60.652344 0-109.996094-49.34375-109.996094-110 0-60.652344 49.34375-109.996094 109.996094-109.996094 60.65625 0 110 49.34375 110 109.996094 0 60.65625-49.34375 110-110 110zm0 0" fill="#fff"/><path d="m256 94.707031v219.996094c60.65625 0 110-49.34375 110-110 0-60.652344-49.34375-109.996094-110-109.996094zm0 0" fill="#ebebeb"/><path d="m256 111.707031c52.382812 0 95 42.613281 95 94.996094s-42.617188 95-95 95-94.996094-42.617187-94.996094-95 42.613282-94.996094 94.996094-94.996094m0-30c-69.035156 0-124.996094 55.960938-124.996094 124.996094s55.960938 125 124.996094 125 125-55.964844 125-125-55.964844-124.996094-125-124.996094zm0 0" fill="#808aff"/><path d="m256 81.707031v30c52.382812 0 95 42.613281 95 94.996094s-42.617188 95-95 95v30c69.035156 0 125-55.964844 125-125s-55.964844-124.996094-125-124.996094zm0 0" fill="#666ecc"/><path d="m273.5 260.320312c0 9.667969-7.832031 17.5-17.5 17.5-9.664062 0-17.5-7.832031-17.5-17.5 0-9.664062 7.835938-17.5 17.5-17.5 9.667969 0 17.5 7.835938 17.5 17.5zm0 0" fill="#ff6680"/><path d="m256 242.820312v35c9.667969 0 17.5-7.832031 17.5-17.5 0-9.664062-7.832031-17.5-17.5-17.5zm0 0" fill="#d14960"/><path d="m238.472656 132.582031 4.199219 97.167969h26.660156l4.199219-97.167969zm0 0" fill="#ff6680"/><path d="m256 132.582031v97.167969h13.332031l4.199219-97.167969zm0 0" fill="#d14960"/></svg>