<svg height="512pt" viewBox="0 0 512 512.00015" width="512pt" xmlns="http://www.w3.org/2000/svg"><path d="m512 256.269531c0 .230469 0 .460938-.011719.691407v.269531c0 1.308593-.019531 2.621093-.046875 3.917969-.011718.480468-.019531.960937-.03125 1.441406-.050781 1.71875-.101562 3.429687-.179687 5.140625-.058594 1.28125-.121094 2.550781-.199219 3.820312-.011719.089844-.011719.167969-.019531.257813-.589844 9.792968-1.730469 19.421875-3.402344 28.882812-15.539063 88.269532-76.308594 160.949219-157.5 193.257813-11.5 4.570312-23.398437 8.339843-35.640625 11.222656-4.839844 1.136719-9.738281 2.148437-14.679688 3.007813-10.148437 1.769531-20.507812 2.949218-31.039062 3.46875-.5.03125-1 .0625-1.5.082031-.121094.007812-.238281.007812-.359375.019531-.332031.011719-.671875.03125-1 .039062-3.53125.152344-7.089844.210938-10.660156.210938-1.371094 0-2.742188-.011719-4.109375-.03125-4.609375-.078125-9.199219-.277344-13.75-.609375-.371094-.019531-.730469-.050781-1.101563-.078125-.121093 0-.230469-.011719-.347656-.019531-.140625-.011719-.28125-.023438-.421875-.042969-.328125-.027344-.660156-.046875-.988281-.078125-5.472657-.429687-10.882813-1.050781-16.242188-1.839844-2.050781-.289062-4.089843-.609375-6.109375-.960937-2.25-.378906-4.480468-.789063-6.699218-1.230469-.230469-.050781-.472657-.089844-.699219-.140625-12.929688-2.597656-25.492188-6.167969-37.621094-10.628906-3.519531-1.300782-7-2.667969-10.449219-4.121094-92.421875-38.6875-157.300781-130.039062-157.191406-236.488281.148438-141.378907 114.890625-255.878907 256.269531-255.730469 119.0625.128906 219.0625 81.511719 247.5625 191.640625.339844 1.328125.679688 2.660156 1 4 .699219 2.890625 1.347657 5.789063 1.949219 8.71875.390625 1.929687.769531 3.871094 1.109375 5.820313.121094.582031.21875 1.160156.320313 1.742187 1.140624 6.519531 2.019531 13.117187 2.648437 19.796875.101563 1.082031.199219 2.160156.28125 3.25.269531 3.242188.480469 6.511719.609375 9.78125.011719.121094.019531.230469.019531.351562.070313 1.597657.121094 3.207032.152344 4.828126.058594 2.109374.078125 4.21875.078125 6.339843zm0 0" fill="#808aff"/><path d="m511.730469 267.730469c-.058594 1.28125-.121094 2.550781-.199219 3.820312-.011719.089844-.011719.167969-.019531.257813-.589844 9.792968-1.730469 19.421875-3.402344 28.882812-15.539063 88.269532-76.308594 160.949219-157.5 193.257813-11.5 4.570312-23.398437 8.339843-35.640625 11.222656-4.839844 1.136719-9.738281 2.148437-14.679688 3.007813-10.148437 1.769531-20.507812 2.949218-31.039062 3.46875-.5.03125-1 .0625-1.5.082031-.039062-.03125-.070312-.058594-.101562-.101563-.21875-.207031-133.648438-133.628906-133.648438-133.628906l22.453125-86.953125 221.128906-157.476563.417969.429688zm0 0" fill="#666ecc"/><path d="m335.578125 91.566406 84.851563 84.855469-68.707032 68.703125-84.851562-84.851562zm0 0" fill="#fff"/><path d="m309.292969 202.707031 68.707031-68.707031 42.425781 42.425781-68.707031 68.707031zm0 0" fill="#ebebeb"/><path d="m370.929688 155.207031 21.214843 21.210938-21.214843 21.214843-21.210938-21.214843zm0 0" fill="#455373"/><path d="m335.574219 119.851562 21.214843 21.214844-21.214843 21.210938-21.210938-21.210938zm0 0" fill="#5c6b99"/><path d="m266.578125 121.675781-132.582031 132.585938c-34.167969 34.167969-34.167969 89.570312 0 123.742187 34.171875 34.171875 89.574218 34.171875 123.742187 0l132.585938-132.582031zm-52.726563 225.96875c-13.667968 13.667969-35.828124 13.667969-49.496093 0-13.671875-13.667969-13.667969-35.828125 0-49.496093 13.667969-13.667969 35.828125-13.667969 49.496093 0 13.667969 13.667968 13.667969 35.828124 0 49.496093zm0 0" fill="#ffdf4c"/><path d="m328.453125 183.550781-114.601563 114.597657c13.667969 13.667968 13.667969 35.828124 0 49.496093-13.667968 13.667969-35.828124 13.667969-49.496093 0l-30.359375 30.359375c34.171875 34.171875 89.574218 34.171875 123.742187 0l132.582031-132.582031zm0 0" fill="#d4b93f"/><path d="m266.578125 121.675781 123.742187 123.742188-38.890624 38.890625-123.742188-123.742188zm0 0" fill="#ff6680"/><path d="m289.558594 222.441406 38.890625-38.890625 61.871093 61.871094-38.890624 38.890625zm0 0" fill="#d14960"/></svg>