<svg height="512pt" viewBox="0 0 512 512" width="512pt" xmlns="http://www.w3.org/2000/svg"><path d="m512 256c0 5.109375-.148438 10.179688-.449219 15.21875-.320312 5.609375-.832031 11.171875-1.519531 16.671875-.121094.96875-.25 1.9375-.382812 2.910156-.039063.308594-.089844.628907-.128907.9375-.078125.582031-.160156 1.160157-.25 1.742188-15.941406 108.660156-100.140625 195.128906-207.660156 214.460937-1.109375.199219-2.230469.386719-3.347656.578125-13.121094 2.179688-26.570313 3.371094-40.273438 3.46875-.660156.011719-1.328125.011719-1.988281.011719-2.378906 0-4.738281-.03125-7.101562-.101562-3.277344-.089844-6.539063-.238282-9.777344-.449219-.382813-.019531-.75-.039063-1.132813-.070313-6.417969-.449218-12.769531-1.140625-19.046875-2.050781-1.851562-.269531-3.691406-.558594-5.519531-.867187-1.121094-.191407-2.242187-.382813-3.351563-.589844-1.730468-.3125-3.449218-.640625-5.171874-.992188-116.898438-23.667968-204.898438-127-204.898438-250.878906 0-141.378906 114.621094-256 256-256 116.921875 0 215.53125 78.378906 246.160156 185.46875 2.480469 8.660156 4.511719 17.5 6.070313 26.511719 1.007812 5.859375 1.828125 11.789062 2.441406 17.78125.027344.339843.066406.667969.097656 1.007812.808594 8.289063 1.230469 16.71875 1.230469 25.230469zm0 0" fill="#45e595"/><path d="m510.03125 287.890625c-.121094.96875-.25 1.9375-.382812 2.910156-.039063.308594-.089844.628907-.128907.9375-.078125.582031-.160156 1.160157-.25 1.742188-15.941406 108.660156-100.140625 195.128906-207.660156 214.460937-1.109375.199219-2.230469.386719-3.347656.578125-13.121094 2.179688-26.570313 3.371094-40.273438 3.46875-.660156.011719-1.328125.011719-1.988281.011719-2.378906 0-4.738281-.03125-7.101562-.101562-3.277344-.089844-6.539063-.238282-9.777344-.449219l-126-125.558594 235-260zm0 0" fill="#39bf7c"/><path d="m383.878906 385.621094-15-30.285156v-.914063l30-.109375v1.023438zm0 0" fill="#ffdf4c"/><path d="m383.878906 354.367188v31.253906l15-30.285156v-1.023438zm0 0" fill="#d4b93f"/><path d="m376.378906 370.621094 7.5 15 7.5-15zm0 0" fill="#5c6b99"/><path d="m398.878906 218.148438h-30v-15c0-8.285157 6.714844-15 15-15 8.28125 0 15 6.714843 15 15zm0 0" fill="#ffdf4c"/><path d="m383.878906 188.148438v30h15v-15c0-8.285157-6.71875-15-15-15zm0 0" fill="#d4b93f"/><path d="m383.878906 370.621094v15l7.5-15zm0 0" fill="#455373"/><path d="m368.878906 215.335938h30v140h-30zm0 0" fill="#ff6680"/><path d="m383.878906 215.335938h15v140h-15zm0 0" fill="#d14960"/><path d="m318.121094 416.113281-17.5-10-17.5 10v-40h35zm0 0" fill="#ff6680"/><path d="m300.621094 376.113281v30l17.5 10v-40zm0 0" fill="#d14960"/><path d="m128.121094 125.886719h220v260h-220zm0 0" fill="#ffdf4c"/><path d="m245.621094 125.886719h102.5v260h-102.5zm0 0" fill="#d4b93f"/><path d="m128.121094 220.886719h220v70h-220zm0 0" fill="#fff"/><path d="m245.621094 220.886719h102.5v70h-102.5zm0 0" fill="#ebebeb"/><path d="m113.121094 125.886719h30v260h-30zm0 0" fill="#ff6680"/></svg>