<svg height="511pt" viewBox="0 0 511.99961 511" width="511pt" xmlns="http://www.w3.org/2000/svg"><path d="m511.917969 263c-.0625 2.289062-.152344 4.589844-.269531 6.859375-.011719.128906-.011719.25-.023438.378906-.148438 2.78125-.339844 5.542969-.578125 8.292969-.308594 3.667969-.699219 7.308594-1.171875 10.917969-.296875 2.339843-.628906 4.671875-1 6.992187-.078125.546875-.167969 1.097656-.257812 1.648438-14.808594 90.738281-77.148438 164.988281-160.089844 197.15625-6.9375 2.710937-14 5.089844-21.15625 7.171875-12.433594 3.609375-25.121094 6.230469-37.941406 7.910156-4.039063.527344-8.078126.96875-12.140626 1.296875-1.4375.121094-2.890624.230469-4.339843.320312-4.589844.300782-9.1875.472657-13.789063.523438-.921875.019531-1.839844.027344-2.761718.027344-1.75 0-3.507813-.007813-5.257813-.050782-.550781 0-1.089844-.019531-1.640625-.027343-.101562 0-.191406-.011719-.289062-.011719-4.101563-.109375-8.171876-.308594-12.210938-.621094-5.808594-.417968-11.558594-1.039062-17.25-1.847656-5.460938-.769531-10.871094-1.71875-16.210938-2.839844-113.945312-23.699218-199.414062-122.910156-203.386718-241.808594-.1796878-5.089843-.199219-10.199218-.0703128-15.289062.1406248-5.691406.4804688-11.371094.9999998-17.03125.160157-1.789062.351563-3.566406.550781-5.359375.832032-7.457031 2.160157-14.847656 3.492188-22.226563 24.1875-119.480468 131.296875-208 257.375-204.800781 132.527344 3.371094 238.988281 106.910157 248.757812 236.328125.058594.75.109376 1.5.160157 2.25.539062 7.859375.699219 15.808594.5 23.839844zm0 0" fill="#ff6680"/><path d="m511.917969 263c-.0625 2.289062-.152344 4.589844-.269531 6.859375-.011719.128906-.011719.25-.023438.378906-.148438 2.78125-.339844 5.542969-.578125 8.292969-.308594 3.667969-.699219 7.308594-1.171875 10.917969-.296875 2.339843-.628906 4.671875-1 6.992187-.078125.546875-.167969 1.097656-.257812 1.648438-14.808594 90.738281-77.148438 164.988281-160.089844 197.15625-6.9375 2.710937-14 5.089844-21.15625 7.171875-12.433594 3.609375-25.121094 6.230469-37.941406 7.910156-4.039063.527344-8.078126.96875-12.140626 1.296875-1.4375.121094-2.890624.230469-4.339843.320312-4.589844.300782-9.1875.472657-13.789063.523438-.921875.019531-1.839844.027344-2.761718.027344-1.75 0-3.507813-.007813-5.257813-.050782-.550781 0-1.089844-.019531-1.640625-.027343-.101562 0-.191406-.011719-.289062-.011719-4.101563-.109375-8.171876-.308594-12.210938-.621094l-106-105.175781 250-300.695313 130.257812 130.996094c.058594.75.109376 1.5.160157 2.25.539062 7.859375.699219 15.808594.5 23.839844zm0 0" fill="#d14960"/><path d="m131 111.558594h250v295.054687h-250zm0 0" fill="#fff"/><path d="m256 111.558594h125v295.054687h-125zm0 0" fill="#ebebeb"/><path d="m131 105.914062h250v30h-250zm0 0" fill="#ffdf4c"/><path d="m256 105.914062h125v30h-125zm0 0" fill="#d4b93f"/><path d="m161 165.886719h190v75.730469h-190zm0 0" fill="#c0dafb"/><g fill="#a0b9d8"><path d="m256 165.886719h95v75.730469h-95zm0 0"/><path d="m266 261.617188h84.996094v24.996093h-84.996094zm0 0"/><path d="m266 306.613281h84.996094v25h-84.996094zm0 0"/></g><path d="m161 351.613281h190v25h-190zm0 0" fill="#c0dafb"/><path d="m161 261.617188h85v69.996093h-85zm0 0" fill="#c0dafb"/><path d="m256 351.613281h95v25h-95zm0 0" fill="#a0b9d8"/></svg>