<svg height="511pt" viewBox="0 0 511.99989 511" width="511pt" xmlns="http://www.w3.org/2000/svg"><path d="m511.914062 263c-.058593 2.417969-.160156 4.839844-.289062 7.238281-.050781.980469-.109375 1.960938-.179688 2.929688-.050781.78125-.097656 1.5625-.160156 2.339843-.140625 2-.308594 3.980469-.5 5.960938-.007812.019531-.007812.039062-.007812.0625-9.550782 98.207031-74.320313 179.617188-162.25 213.714844-6.9375 2.710937-14 5.089844-21.160156 7.171875-2.027344.589843-4.070313 1.148437-6.109376 1.6875-5.050781 1.332031-10.140624 2.5-15.257812 3.5-5.492188 1.089843-11.019531 1.992187-16.570312 2.71875-4.039063.53125-8.082032.972656-12.140626 1.300781-2.988281.25-5.980468.449219-8.980468.589844h-.058594c-3.949219.179687-7.898438.269531-11.851562.28125-2.296876 0-4.597657-.019532-6.898438-.082032-136.207031-3.457031-244.855469-112.707031-249.347656-247.125-.1796878-5.089843-.199219-10.199218-.0703128-15.289062.1406248-5.691406.4804688-11.371094.9999998-17.03125.160157-1.789062.351563-3.566406.550781-5.359375.832032-7.457031 2.160157-14.847656 3.492188-22.230469 24.1875-119.476562 131.296875-207.996094 257.375-204.792968 141.328125 3.589843 253.003906 121.085937 249.414062 262.414062zm0 0" fill="#ffdf4c"/><path d="m307.269531 507.347656c4.691407-.945312 9.355469-2.023437 13.988281-3.242187 2.039063-.539063 4.078126-1.097657 6.109376-1.6875 7.160156-2.082031 14.21875-4.460938 21.160156-7.171875 85.066406-32.988282 148.453125-110.257813 161.136718-204.175782l-163.664062-164.371093-180 30 32 31v.050781h-27.117188l-29-30-40 85.46875 113.628907 113.078125-29.679688 30zm0 0" fill="#d4b93f"/><path d="m241 310.769531h30v59.996094h-30zm0 0" fill="#5c6b99"/><path d="m241 140.769531h30v60h-30zm0 0" fill="#5c6b99"/><g fill="#455373"><path d="m311 310.769531h30v60.527344h-30zm0 0"/><path d="m256 141.308594h15v60h-15zm0 0"/><path d="m256 310.769531h15v59.996094h-15zm0 0"/></g><path d="m166 126.699219h180v30h-180zm0 0" fill="#ff6680"/><path d="m256 126.699219h90v30h-90zm0 0" fill="#d14960"/><path d="m378.496094 335.511719v20.785156h-192.664063v30h222.664063v-50.785156zm0 0" fill="#ff6680"/><path d="m378.496094 335.511719v20.785156h-122.496094v30h152.496094v-50.785156zm0 0" fill="#d14960"/><path d="m307.160156 187.742188h-6.542968v72.113281h75.378906v-.113281c0-39.765626-30.816406-72-68.835938-72zm0 0" fill="#c0dafb"/><path d="m300.617188 259.855469v-72.113281h-198.734376v55.472656l102.367188 13.820312 12.5625 65.703125h159.183594v-62.882812zm0 0" fill="#808aff"/><path d="m300.617188 259.855469v-72.113281h-44.617188v134.996093h119.996094v-62.882812zm0 0" fill="#666ecc"/><path d="m141.882812 157.742188h-40v85.472656l40 5.398437zm0 0" fill="#ff6680"/></svg>