<svg height="512pt" viewBox="0 0 512 512" width="512pt" xmlns="http://www.w3.org/2000/svg"><path d="m512 256c0 8.429688-.410156 16.769531-1.210938 25-1.058593 10.988281-2.820312 21.769531-5.230468 32.308594-25.597656 111.910156-124.546875 195.890625-243.570313 198.613281-1.167969.027344-2.339843.046875-3.507812.058594-.832031.019531-1.652344.019531-2.480469.019531-2.378906 0-4.738281-.03125-7.101562-.101562-3.160157-.078126-6.296876-.226563-9.429688-.429688-.320312-.019531-.648438-.039062-.96875-.070312-.058594 0-.121094 0-.179688-.007813-.109374 0-.21875-.011719-.320312-.019531-.328125-.019532-.671875-.050782-1-.070313-6.078125-.441406-12.109375-1.109375-18.058594-1.972656-1.851562-.269531-3.691406-.558594-5.519531-.867187-1.121094-.191407-2.242187-.382813-3.351563-.589844-1.730468-.3125-3.449218-.640625-5.171874-.992188-116.898438-23.667968-204.898438-127-204.898438-250.878906 0-141.378906 114.621094-256 256-256 116.921875 0 215.53125 78.378906 246.160156 185.46875 2.449219 8.5625 4.460938 17.300781 6.019532 26.210938.019531.101562.03125.199218.050781.300781 1.007812 5.859375 1.828125 11.789062 2.441406 17.78125.027344.339843.066406.667969.097656 1.007812.199219 2.070313.378907 4.152344.53125 6.230469.039063.46875.070313.929688.097657 1.398438.171874 2.523437.3125 5.0625.402343 7.601562.140625 3.320312.199219 6.648438.199219 10zm0 0" fill="#808aff"/><path d="m512 256c0 8.429688-.410156 16.769531-1.210938 25-1.058593 10.988281-2.820312 21.769531-5.230468 32.308594-25.597656 111.910156-124.546875 195.890625-243.570313 198.613281-1.167969.027344-2.339843.046875-3.507812.058594-.832031.019531-1.652344.019531-2.480469.019531-2.378906 0-4.738281-.03125-7.101562-.101562-3.160157-.078126-6.296876-.226563-9.429688-.429688-.320312-.019531-.648438-.039062-.96875-.070312-.058594 0-.121094 0-.179688-.007813-.109374 0-.21875-.011719-.320312-.019531-.328125-.019532-.671875-.050782-1-.070313l-106-105.300781 250-300 130.300781 131c.039063.46875.070313.929688.097657 1.398438.171874 2.523437.3125 5.0625.402343 7.601562.140625 3.320312.199219 6.648438.199219 10zm0 0" fill="#666ecc"/><path d="m131 106h250v300h-250zm0 0" fill="#fff"/><path d="m256 106h125v300h-125zm0 0" fill="#ebebeb"/><g fill="#a0b9d8"><path d="m276 136h75v25h-75zm0 0"/><path d="m276 181h38v25h-38zm0 0"/><path d="m276 221h75v25h-75zm0 0"/><path d="m276 266h38v25h-38zm0 0"/></g><path d="m161.128906 136h75v70h-75zm0 0" fill="#ebebeb"/><path d="m161.128906 221h75v70h-75zm0 0" fill="#ebebeb"/><path d="m161.128906 306h75v70h-75zm0 0" fill="#ebebeb"/><path d="m276 306h75v25h-75zm0 0" fill="#a0b9d8"/><path d="m276 351h38v25h-38zm0 0" fill="#a0b9d8"/><path d="m226.914062 156.859375-14.144531-14.144531-14.140625 14.144531-14.140625-14.144531-14.144531 14.144531 14.144531 14.140625-14.144531 14.140625 14.144531 14.144531 14.140625-14.144531 14.140625 14.144531 14.144531-14.144531-14.144531-14.140625zm0 0" fill="#ff6680"/><path d="m226.914062 326.859375-14.144531-14.144531-14.140625 14.144531-14.140625-14.144531-14.144531 14.144531 14.144531 14.140625-14.144531 14.140625 14.144531 14.144531 14.140625-14.144531 14.140625 14.144531 14.144531-14.144531-14.144531-14.140625zm0 0" fill="#ff6680"/><path d="m193.65625 254.230469 24.75-24.746094 14.140625 14.140625-38.890625 38.890625-28.945312-28.945313 14.140624-14.140624zm0 0" fill="#45e595"/></svg>