<svg height="512pt" viewBox="0 0 512.00004 512" width="512pt" xmlns="http://www.w3.org/2000/svg"><path d="m511.914062 262.5c-.058593 2.417969-.160156 4.839844-.289062 7.238281-.070312 1.242188-.140625 2.472657-.230469 3.699219-.167969 2.542969-.378906 5.070312-.621093 7.589844-.507813 5.242187-1.179688 10.421875-2 15.5625-14.519532 91.1875-77.007813 165.875-160.246094 198.15625-6.941406 2.710937-14 5.089844-21.160156 7.167968-9.9375 2.890626-20.050782 5.140626-30.257813 6.792969-2.5625.40625-5.121094.777344-7.679687 1.117188-4.039063.53125-8.082032.972656-12.140626 1.300781-1.429687.121094-2.859374.230469-4.289062.320312-1.582031.109376-3.160156.199219-4.75.269532-3.75.171875-7.5.261718-11.25.28125h-.601562c-2.300782 0-4.597657-.019532-6.898438-.082032-136.207031-3.457031-244.855469-112.707031-249.347656-247.125-.1796878-5.089843-.199219-10.199218-.0703128-15.289062.1406248-5.691406.4804688-11.371094.9999998-17.03125.160157-1.789062.351563-3.570312.550781-5.359375.832032-7.460937 2.160157-14.847656 3.492188-22.230469 24.1875-119.476562 131.296875-207.996094 257.375-204.7929685 136.367188 3.4570315 245.125 112.9765625 249.363281 247.6132815.160157 4.902343.179688 9.839843.050781 14.800781zm0 0" fill="#45e595"/><path d="m511.394531 273.4375c-.167969 2.539062-.378906 5.070312-.621093 7.589844-.507813 5.242187-1.179688 10.421875-2 15.558594-14.519532 91.191406-77.007813 165.878906-160.246094 198.160156-6.941406 2.707031-14 5.089844-21.160156 7.167968-9.9375 2.890626-20.050782 5.140626-30.257813 6.789063-2.5625.410156-5.121094.78125-7.679687 1.121094-4.039063.53125-8.082032.96875-12.140626 1.300781-1.429687.117188-2.859374.230469-4.289062.320312l-107-106.890624v-45.148438l-35-34 214.996094-217.964844zm0 0" fill="#39bf7c"/><path d="m156 134.574219h199.996094v60.835937h-199.996094zm0 0" fill="#5c6b99"/><path d="m256 134.574219h99.996094v60.835937h-99.996094zm0 0" fill="#455373"/><path d="m166 107.441406h179.996094v120h-179.996094zm0 0" fill="#fff"/><path d="m256 107.441406h89.996094v120h-89.996094zm0 0" fill="#ebebeb"/><path d="m131 165.414062h249.996094v159.996094h-249.996094zm0 0" fill="#ff6680"/><path d="m256 165.414062h124.996094v159.996094h-124.996094zm0 0" fill="#d14960"/><path d="m156 264.574219h199.996094v60.835937h-199.996094zm0 0" fill="#5c6b99"/><path d="m256 264.574219h99.996094v60.835937h-99.996094zm0 0" fill="#455373"/><path d="m166 275.410156h179.996094v129.144532h-179.996094zm0 0" fill="#fff"/><path d="m256 275.410156h89.996094v129.144532h-89.996094zm0 0" fill="#ebebeb"/><path d="m156 264.574219h199.996094v30h-199.996094zm0 0" fill="#808aff"/><path d="m256 264.574219h99.996094v30h-99.996094zm0 0" fill="#666ecc"/><path d="m196 314.074219h120v24.996093h-120zm0 0" fill="#c0dafb"/><path d="m256 314.074219h60v24.996093h-60zm0 0" fill="#a0b9d8"/><path d="m196 359.070312h120v25h-120zm0 0" fill="#c0dafb"/><path d="m256 359.070312h60v25h-60zm0 0" fill="#a0b9d8"/><path d="m131 199.992188h249.996094v30h-249.996094zm0 0" fill="#ffdf4c"/><path d="m256 199.992188h124.996094v30h-124.996094zm0 0" fill="#d4b93f"/></svg>