<svg height="512pt" viewBox="0 0 512 512.00034" width="512pt" xmlns="http://www.w3.org/2000/svg"><path d="m512 256.269531c0 5.089844-.160156 10.199219-.46875 15.28125-.5 8.371094-1.410156 16.628907-2.710938 24.757813-.039062.292968-.078124.582031-.128906.871094-.492187 3.050781-1.042968 6.082031-1.652344 9.089843-21.820312 109.691407-113.738281 194.089844-227.039062 204.621094-7.988281.738281-16.078125 1.121094-24.269531 1.109375-4.878907 0-9.761719-.140625-14.640625-.429688-.371094-.019531-.730469-.039062-1.089844-.070312-.328125-.011719-.667969-.039062-1-.058594-1.167969-.070312-2.339844-.160156-3.5-.25-6.570312-.519531-13.109375-1.292968-19.621094-2.332031-12.777344-2.019531-25.398437-4.980469-37.730468-8.910156-7.089844-2.269531-14.089844-4.839844-20.957032-7.730469-92.421875-38.6875-157.300781-130.039062-157.191406-236.488281.148438-141.378907 114.890625-255.878907 256.269531-255.730469 126.121094.128906 230.851563 91.449219 251.871094 211.53125 1.140625 7.417969 2.269531 14.839844 2.910156 22.320312.058594.738282.121094 1.46875.179688 2.207032.261719 3.363281.460937 6.722656.578125 10.082031.132812 3.378906.191406 6.75.191406 10.128906zm0 0" fill="#ffdf4c"/><path d="m507.039062 306.269531c-21.820312 109.691407-113.738281 194.089844-227.039062 204.621094l-149-148.28125s32.742188-122.929687 79.019531-141.25c-.210937-.210937-6.621093-6.628906-6.621093-6.628906l105.632812-106.46875s197.828125 197.820312 198 198zm0 0" fill="#d4b93f"/><path d="m381 362.609375h-250v-25c0-69.035156 55.964844-125 125-125s125 55.964844 125 125zm0 0" fill="#ff6680"/><path d="m256 212.609375v150h125v-25c0-69.035156-55.964844-125-125-125zm0 0" fill="#d14960"/><path d="m331 161.289062c0 41.421876-33.578125 75-75 75s-75-33.578124-75-75c0-41.421874 33.578125-75 75-75s75 33.578126 75 75zm0 0" fill="#ffbfab"/><path d="m256 86.289062v150c41.421875 0 75-33.578124 75-75 0-41.421874-33.578125-75-75-75zm0 0" fill="#ffa78f"/><path d="m241 395.710938h30v30h-30zm0 0" fill="#45e595"/><path d="m256 395.710938h15v30h-15zm0 0" fill="#39bf7c"/><path d="m234.785156 315.960938h42.429688v90h-42.429688zm0 0" fill="#808aff"/><path d="m256 315.960938h21.214844v90h-21.214844zm0 0" fill="#666ecc"/><path d="m296 297.421875c0 22.089844-17.910156 40-40 40s-40-17.910156-40-40c0-22.09375 17.910156-40 40-40s40 17.90625 40 40zm0 0" fill="#5c6b99"/><path d="m256 257.421875v80c22.089844 0 40-17.910156 40-40 0-22.09375-17.90625-40-40-40zm0 0" fill="#455373"/><path d="m218.5 319.355469h75v30h-75zm0 0" fill="#45e595"/><path d="m256 319.355469h37.5v30h-37.5zm0 0" fill="#39bf7c"/></svg>